<svg viewBox="0 0 48 48" xmlns="http://www.w3.org/2000/svg">
	<path
		d="M21.9286 10.0816H38.0079H38.9592C41.1909 10.0816 43 8.2725 43 6.04082C43 3.80913 41.1909 2 38.9592 2H14C11.1997 2 9.79961 2 8.73005 2.54497C7.78924 3.02433 7.02433 3.78924 6.54497 4.73005C6 5.79961 6 7.19974 6 10V38C6 40.8003 6 42.2004 6.54497 43.27C7.02433 44.2108 7.78924 44.9757 8.73005 45.455C9.79961 46 11.1997 46 14 46H35C37.8003 46 39.2004 46 40.27 45.455C41.2108 44.9757 41.9757 44.2108 42.455 43.27C43 42.2004 43 40.8003 43 38V27.7749C43 26.8275 43 26.3538 42.936 25.9575C42.5923 23.8305 40.9246 22.1628 38.7976 21.8191C38.4013 21.7551 37.9276 21.7551 36.9802 21.7551H33.2052C31.9654 21.7551 30.9603 22.7602 30.9603 24C30.9603 25.2398 31.9654 26.2449 33.2052 26.2449H34.4841C36.4303 26.2449 38.0079 27.8226 38.0079 29.7687V31.932C38.0079 32.5701 38.0079 32.8891 37.9788 33.1576C37.7258 35.4927 35.8816 37.337 33.5465 37.59C33.278 37.619 32.959 37.619 32.3209 37.619H21.9286C19.1283 37.619 17.7282 37.619 16.6586 37.0741C15.7178 36.5947 14.9529 35.8298 14.4735 34.889C13.9286 33.8194 13.9286 32.4193 13.9286 29.619V18.0816C13.9286 15.2814 13.9286 13.8812 14.4735 12.8117C14.9529 11.8709 15.7178 11.106 16.6586 10.6266C17.7282 10.0816 19.1283 10.0816 21.9286 10.0816Z"
		fill="#141414"
	/>
	<circle cx="27" cy="24" r="3" fill="#141414" />
</svg>
