<svg width="256" height="256" viewBox="0 0 256 256" fill="none" xmlns="http://www.w3.org/2000/svg">
<path d="M93.7286 67.898H187.008H196.2C200.68 67.898 202.921 67.898 204.632 67.026C206.137 66.259 207.361 65.0352 208.128 63.5299C209 61.8186 209 59.5784 209 55.098V45.8C209 41.3196 209 39.0794 208.128 37.3681C207.361 35.8628 206.137 34.6389 204.632 33.8719C202.921 33 200.68 33 196.2 33H58.8C54.3196 33 52.0794 33 50.3681 33.8719C48.8628 34.6389 47.6389 35.8628 46.8719 37.3681C46 39.0794 46 41.3196 46 45.8V210.2C46 214.68 46 216.921 46.8719 218.632C47.6389 220.137 48.8628 221.361 50.3681 222.128C52.0794 223 54.3196 223 58.8 223H196.2C200.68 223 202.921 223 204.632 222.128C206.137 221.361 207.361 220.137 208.128 218.632C209 216.921 209 214.68 209 210.2V131.106C209 126.626 209 124.385 208.128 122.674C207.361 121.169 206.137 119.945 204.632 119.178C202.921 118.306 200.68 118.306 196.2 118.306H165.654C164.08 118.306 163.294 118.306 162.636 118.416C159.272 118.981 156.635 121.617 156.071 124.982C155.96 125.639 155.96 126.426 155.96 128C155.96 129.574 155.96 130.361 156.071 131.018C156.635 134.383 159.272 137.019 162.636 137.584C163.294 137.694 164.08 137.694 165.654 137.694H174.208C178.688 137.694 180.929 137.694 182.64 138.566C184.145 139.333 185.369 140.557 186.136 142.062C187.008 143.773 187.008 146.013 187.008 150.494V174.01C187.008 178.49 187.008 180.73 186.136 182.441C185.369 183.947 184.145 185.171 182.64 185.938C180.929 186.81 178.688 186.81 174.208 186.81H93.7286C89.2481 186.81 87.0079 186.81 85.2966 185.938C83.7914 185.171 82.5675 183.947 81.8005 182.441C80.9286 180.73 80.9286 178.49 80.9286 174.01V80.698C80.9286 76.2175 80.9286 73.9773 81.8005 72.266C82.5675 70.7607 83.7914 69.5369 85.2966 68.7699C87.0079 67.898 89.2481 67.898 93.7286 67.898Z" fill="black"/>
</svg>
