<svg xmlns="http://www.w3.org/2000/svg" viewBox="0 0 34.5 34.5">
	<path
		fill="var(--white)"
		d="M17.583,33.703c-1.177,0.679-3.103,0.679-4.279,0L2.14,27.257C0.963,26.578,0,24.91,0,23.551v-12.89
			c0-1.359,0.963-3.027,2.14-3.706L13.304,0.51c1.176-0.68,3.102-0.68,4.279,0l11.162,6.445c1.178,0.679,2.14,2.347,2.14,3.706
			v12.89c0,1.359-0.962,3.026-2.14,3.706L17.583,33.703z"
	/>
	<path
		fill="var(--black)"
		d="M20.74,20.827c-0.492,0.203-0.853,0.588-1.039,1.044c-0.015,0.029-0.03,0.057-0.046,0.09
			c-0.084,0.201-0.218,0.503-0.402,0.9c-0.163,0.35-0.364,0.575-0.598,0.675c-0.238,0.094-0.539,0.078-0.901-0.054
			c-0.411-0.151-0.719-0.268-0.922-0.352c-0.03-0.012-0.06-0.02-0.091-0.03c-0.003-0.002-0.007-0.002-0.011-0.003
			c-0.004-0.002-0.008-0.005-0.012-0.007c-0.075-0.031-0.151-0.047-0.227-0.068c-0.037-0.01-0.073-0.025-0.111-0.033
			c-0.39-0.083-0.785-0.043-1.137,0.105c-0.031,0.01-0.061,0.02-0.094,0.031c-0.203,0.084-0.509,0.201-0.922,0.352
			c-0.364,0.133-0.664,0.15-0.901,0.054c-0.235-0.1-0.436-0.325-0.598-0.674c-0.185-0.399-0.32-0.699-0.404-0.902
			c-0.007-0.015-0.015-0.03-0.022-0.044c-0.007-0.019-0.009-0.038-0.017-0.056c-0.203-0.492-0.587-0.852-1.044-1.039
			c-0.029-0.014-0.057-0.03-0.09-0.044c-0.201-0.084-0.503-0.218-0.9-0.404c-0.35-0.161-0.575-0.363-0.675-0.597
			C9.483,19.532,9.5,19.23,9.631,18.869c0.152-0.412,0.268-0.721,0.353-0.922c0.01-0.03,0.021-0.06,0.029-0.09
			c0-0.001,0-0.002,0.001-0.002c0.001-0.003,0.003-0.005,0.004-0.007c0.016-0.039,0.022-0.079,0.036-0.119
			c0.027-0.079,0.056-0.159,0.072-0.241c0.009-0.047,0.01-0.093,0.015-0.14c0.01-0.08,0.021-0.159,0.021-0.24
			c0-0.036-0.007-0.071-0.009-0.107c-0.005-0.091-0.011-0.181-0.03-0.272c-0.002-0.008-0.005-0.015-0.007-0.023
			c-0.024-0.109-0.053-0.218-0.097-0.325c-0.003-0.007-0.008-0.013-0.01-0.02c-0.008-0.026-0.017-0.052-0.026-0.081
			c-0.084-0.201-0.201-0.509-0.352-0.921c-0.133-0.363-0.15-0.664-0.054-0.9c0.101-0.237,0.326-0.438,0.674-0.599
			c0.399-0.184,0.7-0.319,0.902-0.403c0.028-0.013,0.057-0.029,0.085-0.044c0.242-0.098,0.461-0.248,0.647-0.438
			c0.014-0.014,0.024-0.03,0.037-0.044c0.069-0.075,0.136-0.153,0.193-0.24c0.046-0.069,0.081-0.144,0.117-0.218
			c0.016-0.034,0.039-0.064,0.053-0.1c0.001-0.002,0.001-0.004,0.002-0.005c0.002-0.005,0.005-0.009,0.007-0.013
			c0.015-0.028,0.03-0.057,0.046-0.089c0.084-0.201,0.218-0.502,0.402-0.9c0.163-0.35,0.364-0.576,0.6-0.675
			c0.236-0.096,0.538-0.079,0.899,0.053c0.412,0.151,0.721,0.269,0.923,0.353c0.029,0.012,0.06,0.02,0.09,0.03
			c0.004,0.002,0.009,0.002,0.013,0.004c0.004,0.002,0.008,0.005,0.012,0.006c0.07,0.029,0.142,0.044,0.213,0.064
			c0.041,0.011,0.081,0.028,0.123,0.037c0.389,0.083,0.785,0.043,1.136-0.105c0.03-0.01,0.061-0.02,0.096-0.031
			c0.201-0.084,0.509-0.201,0.922-0.352c0.362-0.132,0.664-0.15,0.899-0.054c0.236,0.101,0.437,0.325,0.599,0.674
			c0.185,0.398,0.319,0.7,0.404,0.903c0.014,0.028,0.029,0.056,0.043,0.084c0.186,0.458,0.548,0.843,1.04,1.049
			c0.978,0.404,2.096-0.06,2.502-1.037c0.404-0.976-0.058-2.095-1.035-2.5c-0.493-0.203-1.021-0.187-1.475,0.004
			c-0.03,0.009-0.06,0.019-0.094,0.03c-0.203,0.084-0.51,0.202-0.922,0.352c-0.362,0.133-0.665,0.149-0.901,0.054
			c-0.235-0.1-0.436-0.325-0.599-0.673c-0.184-0.399-0.319-0.701-0.403-0.902c-0.012-0.028-0.029-0.056-0.044-0.085
			c-0.142-0.352-0.391-0.66-0.723-0.877c-0.051-0.034-0.108-0.058-0.162-0.087c-0.052-0.027-0.099-0.06-0.154-0.083
			c-0.002-0.001-0.003-0.001-0.005-0.001c-0.454-0.19-0.981-0.207-1.473-0.003c-0.493,0.203-0.853,0.588-1.039,1.044
			c-0.014,0.028-0.03,0.057-0.045,0.089c-0.083,0.202-0.217,0.503-0.403,0.901c-0.162,0.349-0.363,0.575-0.598,0.674
			c-0.237,0.096-0.539,0.079-0.899-0.053c-0.412-0.151-0.721-0.268-0.923-0.352c-0.03-0.01-0.06-0.02-0.091-0.029
			C10.81,9.675,10.282,9.657,9.79,9.861c-0.49,0.203-0.851,0.587-1.038,1.041c0,0.001-0.002,0.002-0.002,0.004
			c-0.023,0.055-0.033,0.112-0.051,0.168c-0.018,0.059-0.041,0.117-0.054,0.178c-0.08,0.387-0.039,0.779,0.108,1.128
			c0.01,0.03,0.02,0.061,0.032,0.094c0.082,0.202,0.201,0.51,0.351,0.922c0.133,0.362,0.15,0.664,0.053,0.9
			c-0.099,0.236-0.324,0.437-0.673,0.598c-0.398,0.185-0.699,0.32-0.902,0.404c-0.026,0.013-0.052,0.027-0.078,0.041
			c-0.005,0.002-0.01,0.003-0.016,0.005c-0.092,0.038-0.176,0.088-0.259,0.139c-0.02,0.012-0.043,0.021-0.063,0.034
			c-0.079,0.052-0.149,0.113-0.219,0.176c-0.024,0.021-0.051,0.039-0.074,0.062c-0.069,0.068-0.127,0.143-0.184,0.22
			c-0.018,0.024-0.04,0.045-0.057,0.07c-0.071,0.106-0.133,0.218-0.181,0.335c0,0.001-0.001,0.002-0.002,0.003
			c-0.015,0.036-0.02,0.073-0.033,0.109c-0.028,0.081-0.057,0.162-0.074,0.246c-0.017,0.086-0.022,0.171-0.027,0.257
			c-0.002,0.037-0.01,0.073-0.01,0.111c-0.001,0.118,0.011,0.235,0.032,0.35c0.001,0.006,0.001,0.012,0.002,0.018
			c0.118,0.611,0.528,1.153,1.147,1.409c0.007,0.003,0.015,0.004,0.023,0.007c0.024,0.013,0.049,0.025,0.076,0.039
			c0.202,0.084,0.503,0.218,0.9,0.402c0.35,0.163,0.576,0.364,0.675,0.599c0.096,0.237,0.078,0.538-0.053,0.899
			c-0.152,0.412-0.268,0.721-0.352,0.924c-0.008,0.02-0.014,0.042-0.02,0.063c-0.007,0.015-0.017,0.028-0.023,0.043
			c-0.405,0.977,0.057,2.096,1.036,2.5c0.357,0.148,0.732,0.177,1.085,0.11c0.006-0.001,0.012-0.001,0.018-0.002
			c0.127-0.025,0.251-0.062,0.37-0.112c0.03-0.01,0.062-0.02,0.096-0.03c0.201-0.084,0.51-0.201,0.921-0.352
			c0.362-0.133,0.664-0.151,0.9-0.054c0.234,0.1,0.436,0.325,0.598,0.674c0.185,0.399,0.32,0.699,0.403,0.901
			c0.013,0.028,0.029,0.057,0.045,0.084c0.143,0.353,0.391,0.66,0.722,0.878c0.055,0.036,0.115,0.063,0.173,0.093
			c0.049,0.025,0.092,0.056,0.144,0.078c0.002,0.001,0.003,0.001,0.005,0.002c0.454,0.19,0.98,0.206,1.471,0.003
			c0.493-0.203,0.854-0.588,1.04-1.044c0.015-0.03,0.029-0.057,0.046-0.09c0.084-0.202,0.218-0.503,0.402-0.901
			c0.162-0.35,0.364-0.574,0.599-0.675c0.237-0.094,0.539-0.077,0.9,0.053c0.412,0.151,0.72,0.269,0.923,0.352
			c0.03,0.011,0.06,0.02,0.09,0.03c0.456,0.193,0.984,0.21,1.476,0.005c0.979-0.404,1.441-1.524,1.036-2.5
			C22.836,20.886,21.718,20.423,20.74,20.827z"
	/>
</svg>
