<svg viewBox="0 0 48 48" xmlns="http://www.w3.org/2000/svg">
	<path
		fill-rule="evenodd"
		clip-rule="evenodd"
		d="M21.0919 46.3153C22.6911 47.2282 25.3102 47.2282 26.9108 46.3153L42.0899 37.6483C43.6918 36.734 45 34.4927 45 32.6654V15.3342C45 13.507 43.6918 11.2643 42.0899 10.3513L26.9108 1.68572C25.3102 0.771427 22.6911 0.771427 21.0919 1.68572L5.91015 10.3513C4.30957 11.2643 3 13.507 3 15.3342V32.6654C3 34.4927 4.30957 36.7354 5.91015 37.6483L21.0919 46.3153ZM29.791 30.4067C30.044 29.7936 30.5349 29.2759 31.204 29.003C32.5339 28.4598 34.0543 29.0823 34.6078 30.3946C35.1585 31.7068 34.5302 33.2127 33.1989 33.7559C32.5299 34.0316 31.8118 34.0087 31.1917 33.7492C31.1781 33.7447 31.1645 33.7404 31.1509 33.736C31.1237 33.7274 31.0965 33.7187 31.0693 33.7089C30.7933 33.5973 30.3744 33.4386 29.8142 33.2356C29.3232 33.0608 28.9126 33.0379 28.5903 33.1643C28.2707 33.3001 27.996 33.6013 27.7757 34.0719C27.5255 34.607 27.3433 35.0117 27.229 35.2833L27.219 35.3025C27.2002 35.3385 27.1839 35.37 27.1665 35.4043C26.9135 36.0175 26.4226 36.5351 25.7522 36.8081C25.0845 37.081 24.3692 37.0595 23.7518 36.804C23.7504 36.8033 23.7494 36.803 23.7484 36.8027C23.7474 36.8023 23.7464 36.802 23.745 36.8013C23.7026 36.7836 23.6646 36.7615 23.6265 36.7394C23.6012 36.7246 23.5758 36.7099 23.5492 36.6965C23.5288 36.686 23.5083 36.6759 23.4877 36.6658C23.4286 36.6366 23.3694 36.6073 23.3139 36.5714C22.8638 36.2783 22.5265 35.8655 22.3321 35.3909C22.3103 35.3546 22.2886 35.3156 22.2709 35.278C22.158 35.0064 21.9744 34.603 21.7229 34.0665C21.5026 33.5973 21.2279 33.2948 20.9096 33.1603C20.5887 33.0299 20.178 33.0541 19.6858 33.2329C19.1268 33.4359 18.7066 33.5932 18.4333 33.7062C18.3871 33.7196 18.3435 33.7331 18.3028 33.7465C18.1409 33.8137 17.9723 33.8635 17.7996 33.8971C17.7953 33.8978 17.7911 33.8981 17.7868 33.8985C17.7829 33.8988 17.779 33.8992 17.7751 33.8998C17.2951 33.9899 16.7851 33.9509 16.2996 33.7519C14.9683 33.2087 14.3401 31.7042 14.8908 30.3905C14.8953 30.3794 14.9015 30.369 14.9077 30.3586C14.9128 30.3502 14.9178 30.3417 14.9221 30.3327L14.9245 30.3242C14.9319 30.2986 14.9395 30.2722 14.9493 30.248C15.0635 29.9751 15.2213 29.5596 15.428 29.0056C15.6061 28.5203 15.6306 28.1156 15.5 27.7969C15.3654 27.4809 15.0581 27.2107 14.5821 26.9915C14.0422 26.7441 13.6329 26.5639 13.3582 26.451C13.3436 26.4435 13.3295 26.4365 13.3157 26.4296C13.2947 26.4192 13.2745 26.4091 13.2549 26.3986C13.2498 26.3967 13.2446 26.3954 13.2397 26.3941C13.2341 26.3927 13.2286 26.3913 13.2236 26.3892C12.3818 26.045 11.8243 25.3162 11.6638 24.4947C11.6624 24.4866 11.6624 24.4786 11.6611 24.4705C11.6325 24.3159 11.6162 24.1586 11.6176 23.9999C11.6176 23.9706 11.6211 23.9421 11.6247 23.9138C11.6274 23.8928 11.63 23.8718 11.6312 23.8507C11.638 23.735 11.6448 23.6207 11.6679 23.5051C11.6894 23.4002 11.7249 23.2988 11.7604 23.1976C11.7631 23.1899 11.7658 23.1821 11.7685 23.1743C11.7764 23.1528 11.7821 23.1309 11.7878 23.109C11.795 23.0818 11.8021 23.0546 11.8134 23.0278L11.8161 23.0238C11.8814 22.8664 11.9657 22.7159 12.0622 22.5733C12.0752 22.5544 12.0904 22.5373 12.1055 22.5201C12.1173 22.5067 12.129 22.4933 12.1398 22.4792C12.2173 22.3757 12.2961 22.2748 12.39 22.1834C12.4088 22.1648 12.4297 22.1485 12.4504 22.1324C12.4641 22.1218 12.4777 22.1113 12.4906 22.1C12.5858 22.0153 12.681 21.9333 12.7884 21.8634C12.8034 21.8538 12.8196 21.8458 12.8356 21.8379C12.8488 21.8314 12.8619 21.825 12.8741 21.8177C12.987 21.7491 13.1012 21.6819 13.2263 21.6308C13.2297 21.6297 13.2329 21.6288 13.2359 21.6279C13.2401 21.6268 13.2441 21.6256 13.2481 21.6241C13.2834 21.6053 13.3188 21.5864 13.3541 21.569C13.6302 21.456 14.0395 21.2745 14.5807 21.0258C15.0553 20.8093 15.3613 20.539 15.496 20.2217C15.6279 19.9044 15.6047 19.4983 15.4239 19.0116C15.2199 18.4577 15.0581 18.0435 14.9466 17.7719C14.9335 17.7364 14.9222 17.7026 14.9112 17.6698C14.9084 17.6617 14.9057 17.6536 14.903 17.6456C14.7031 17.1763 14.6474 16.6493 14.7562 16.1289C14.7681 16.0737 14.7862 16.0203 14.8042 15.967C14.8129 15.9412 14.8216 15.9155 14.8296 15.8896C14.8389 15.861 14.8466 15.8323 14.8543 15.8036C14.8669 15.7566 14.8795 15.7096 14.899 15.6637C14.899 15.661 14.9017 15.6583 14.9017 15.6583C15.156 15.0479 15.6469 14.5316 16.3132 14.2586C16.9823 13.9844 17.7003 14.0086 18.3231 14.2734C18.3653 14.2855 18.4061 14.299 18.4469 14.3124C18.7216 14.4254 19.1418 14.5827 19.7021 14.7857C20.1916 14.9632 20.6023 14.986 20.9246 14.857C21.2442 14.7239 21.5175 14.42 21.7378 13.9507C21.9908 13.4156 22.173 13.0109 22.2858 12.7393C22.2988 12.7121 22.3122 12.6864 22.3252 12.6617C22.3327 12.6474 22.3401 12.6335 22.347 12.6196C22.6 12.0065 23.0895 11.4889 23.76 11.2159C24.429 10.9416 25.1457 10.9645 25.7631 11.22C25.7658 11.22 25.7672 11.22 25.7699 11.2213C25.8164 11.2405 25.8587 11.265 25.901 11.2894C25.9268 11.3043 25.9526 11.3192 25.9793 11.3329C26.0038 11.3459 26.0287 11.3582 26.0536 11.3704C26.1035 11.3949 26.1534 11.4194 26.1996 11.4499C26.6511 11.7417 26.9897 12.1558 27.1828 12.6291C27.1897 12.6422 27.1969 12.6552 27.204 12.6681C27.218 12.6935 27.2318 12.7184 27.2426 12.7433C27.3569 13.0136 27.5404 13.4196 27.7907 13.9561C28.0123 14.424 28.2857 14.7265 28.6052 14.861C28.9262 14.9887 29.3382 14.9672 29.8305 14.7884C30.3908 14.5867 30.8082 14.4281 31.0843 14.3151C31.095 14.3117 31.1055 14.3083 31.1157 14.305C31.1495 14.2942 31.1808 14.2841 31.2121 14.2748C31.8295 14.018 32.5475 13.9965 33.218 14.2694C34.5466 14.8139 35.1748 16.3185 34.6254 17.6308C34.0733 18.9444 32.553 19.5683 31.223 19.0251C30.5539 18.7481 30.0617 18.2304 29.8087 17.6146C29.7992 17.5958 29.7893 17.577 29.7795 17.5582C29.7696 17.5393 29.7598 17.5205 29.7502 17.5017C29.6347 17.2288 29.4524 16.8227 29.2009 16.2876C28.9806 15.8183 28.7072 15.5171 28.3863 15.3813C28.0667 15.2523 27.656 15.2765 27.1638 15.4539C26.6021 15.657 26.1833 15.8143 25.9099 15.9272C25.8623 15.942 25.8202 15.9555 25.7794 15.9689C25.3021 16.1679 24.7636 16.2217 24.2346 16.1101C24.2016 16.1031 24.1695 16.0925 24.1375 16.082C24.1141 16.0743 24.0908 16.0666 24.0673 16.0603C24.0416 16.0532 24.0158 16.0465 23.9901 16.0398C23.9189 16.0214 23.8475 16.0029 23.7776 15.9743C23.774 15.9734 23.7704 15.9713 23.7668 15.9692C23.765 15.9682 23.7631 15.9671 23.7613 15.9662C23.7559 15.9635 23.7491 15.9635 23.7436 15.9608C23.73 15.9564 23.7163 15.9522 23.7025 15.948C23.675 15.9396 23.6475 15.9313 23.6213 15.9205C23.3466 15.8076 22.9264 15.6489 22.3661 15.4459C21.8752 15.2684 21.4645 15.2455 21.1435 15.3746C20.8226 15.5077 20.5493 15.8116 20.3276 16.2822C20.0774 16.8173 19.8952 17.222 19.7809 17.4923C19.7592 17.5353 19.7388 17.5743 19.7184 17.6119C19.7173 17.614 19.7161 17.6161 19.7148 17.6182C19.7127 17.6217 19.7105 17.6253 19.7089 17.6294C19.7089 17.6294 19.7075 17.6335 19.7062 17.6361C19.6952 17.6639 19.6803 17.6889 19.6655 17.7139C19.6544 17.7325 19.6434 17.7511 19.6341 17.7706C19.6294 17.7802 19.6247 17.7898 19.6199 17.7994C19.5758 17.8895 19.5315 17.9799 19.475 18.0637C19.3975 18.1807 19.3063 18.2856 19.2125 18.3864C19.2045 18.3949 19.1974 18.4039 19.1902 18.413C19.1815 18.4241 19.1727 18.4352 19.1622 18.4456C18.9093 18.701 18.6114 18.9027 18.2824 19.0345C18.2443 19.0546 18.2048 19.0762 18.1668 19.0936C17.8921 19.2066 17.4827 19.3881 16.9401 19.6355C16.4669 19.852 16.1609 20.1222 16.0236 20.4409C15.893 20.7582 15.9162 21.1629 16.097 21.651C16.3024 22.2049 16.4615 22.619 16.5757 22.8893C16.5818 22.9086 16.5878 22.9269 16.5937 22.9448C16.5997 22.9629 16.6056 22.9806 16.6111 22.9982C16.6126 23.0037 16.6156 23.0087 16.6186 23.0138C16.6208 23.0174 16.6229 23.0212 16.6247 23.0251C16.6845 23.169 16.7239 23.3155 16.7566 23.4621C16.7579 23.4675 16.7596 23.4725 16.7613 23.4775C16.763 23.4826 16.7647 23.4876 16.7661 23.493C16.7919 23.6154 16.8001 23.7364 16.8069 23.8587C16.808 23.879 16.8103 23.899 16.8127 23.9189C16.8159 23.9467 16.8191 23.9744 16.8191 24.0026C16.8191 24.1016 16.8068 24.1984 16.7943 24.2959C16.793 24.3057 16.7918 24.3155 16.7906 24.3253C16.7883 24.3462 16.7867 24.367 16.785 24.3877C16.7817 24.4296 16.7783 24.4712 16.7702 24.5135C16.7508 24.6119 16.7173 24.7081 16.6842 24.8031C16.6802 24.8146 16.6762 24.8261 16.6722 24.8375C16.6639 24.8611 16.6577 24.8847 16.6514 24.9081C16.6435 24.9382 16.6355 24.9681 16.6233 24.9975C16.6228 24.9985 16.6221 24.9995 16.6214 25.0006C16.6201 25.0024 16.6187 25.0044 16.6179 25.007L16.6165 25.0096C16.6083 25.0399 16.5979 25.0702 16.5874 25.1004C16.5839 25.1105 16.5805 25.1206 16.5771 25.1307C16.4615 25.4009 16.3037 25.8164 16.097 26.3703C15.9189 26.8557 15.8958 27.2618 16.0222 27.5831C16.1582 27.8977 16.4642 28.1693 16.9401 28.3858C17.48 28.6359 17.8907 28.8161 18.164 28.929C18.193 28.9411 18.2191 28.9544 18.2446 28.9673C18.2586 28.9745 18.2724 28.9815 18.2864 28.9882C18.9079 29.2396 19.4301 29.7236 19.7062 30.3852C19.7122 30.3986 19.7157 30.4125 19.7193 30.4265C19.7222 30.4377 19.725 30.4491 19.7293 30.4604C19.7324 30.4666 19.7357 30.473 19.739 30.4794C19.7458 30.4925 19.7528 30.5061 19.7592 30.5196C19.8734 30.7925 20.057 31.1959 20.3086 31.7324C20.5289 32.2016 20.8022 32.5042 21.1218 32.6386C21.4441 32.7677 21.852 32.7448 22.347 32.566C22.9087 32.363 23.3248 32.2057 23.6009 32.0927C23.6457 32.0779 23.6865 32.0645 23.7287 32.051C24.2074 31.8521 24.7445 31.7983 25.2749 31.9099C25.3053 31.9162 25.3349 31.9258 25.3643 31.9354C25.3848 31.9421 25.4052 31.9487 25.4258 31.9542C25.4513 31.9612 25.4768 31.9678 25.5023 31.9743C25.5801 31.9943 25.6577 32.0143 25.7345 32.0457C25.7372 32.047 25.74 32.0487 25.7427 32.0504C25.7454 32.0521 25.7481 32.0537 25.7508 32.0551C25.7525 32.0555 25.7543 32.0558 25.7559 32.0561C25.7596 32.0567 25.763 32.0573 25.7658 32.0591C25.7783 32.0631 25.7908 32.0669 25.8031 32.0706C25.8322 32.0794 25.8609 32.0881 25.8895 32.0994C26.1656 32.2124 26.5844 32.3697 27.1434 32.5727C27.6356 32.7502 28.045 32.7717 28.3686 32.6453C28.6868 32.5109 28.9602 32.2084 29.1818 31.7378C29.432 31.204 29.6143 30.7979 29.7285 30.5277C29.7449 30.4942 29.7606 30.4645 29.7761 30.4352C29.7811 30.4257 29.7861 30.4162 29.791 30.4067Z"
		fill="currentColor"
	/>
</svg>
