<svg xmlns="http://www.w3.org/2000/svg" viewBox="0 0 48 48">
	<path
		fill="var(--white)"
		d="M3.29545 36V12.7273H18.4318V16.2614H7.51136V22.5795H17.6477V26.1136H7.51136V32.4659H18.5227V36H3.29545ZM22.7857 36.3409C21.1948 36.3409 19.8273 36.053 18.6834 35.4773C17.5395 34.9015 16.6569 34.125 16.0357 33.1477C15.422 32.1629 15.1152 31.053 15.1152 29.8182C15.1152 28.8864 15.3046 28.0606 15.6834 27.3409C16.0698 26.6212 16.6001 25.9545 17.2743 25.3409C17.9561 24.7273 18.744 24.1174 19.638 23.5114L23.763 20.7045C24.369 20.3106 24.8273 19.8939 25.138 19.4545C25.4561 19.0152 25.6152 18.5 25.6152 17.9091C25.6152 17.4091 25.4031 16.9356 24.9789 16.4886C24.5622 16.0417 23.9864 15.8182 23.2516 15.8182C22.7592 15.8182 22.3236 15.9356 21.9448 16.1705C21.5736 16.3977 21.2819 16.697 21.0698 17.0682C20.8652 17.4394 20.763 17.8333 20.763 18.25C20.763 18.7576 20.9031 19.2727 21.1834 19.7955C21.4713 20.3182 21.8425 20.8598 22.297 21.4205C22.7592 21.9811 23.2516 22.5758 23.7743 23.2045L34.6948 36H30.2402L21.172 25.6136C20.4978 24.8258 19.8463 24.0492 19.2175 23.2841C18.5963 22.5189 18.0849 21.7235 17.6834 20.8977C17.2895 20.0644 17.0925 19.1629 17.0925 18.1932C17.0925 17.0947 17.3463 16.1136 17.8539 15.25C18.3614 14.3788 19.0698 13.6932 19.9789 13.1932C20.8955 12.6932 21.9675 12.4432 23.1948 12.4432C24.422 12.4432 25.4751 12.6856 26.3539 13.1705C27.2327 13.6553 27.9107 14.2992 28.388 15.1023C28.8652 15.9053 29.1039 16.7803 29.1039 17.7273C29.1039 18.8258 28.8311 19.8106 28.2857 20.6818C27.7402 21.5455 26.9827 22.3295 26.013 23.0341L21.3084 26.4773C20.5357 27.0379 19.9827 27.6061 19.6493 28.1818C19.316 28.75 19.1493 29.2348 19.1493 29.6364C19.1493 30.25 19.3046 30.8068 19.6152 31.3068C19.9258 31.8068 20.3614 32.2083 20.922 32.5114C21.4902 32.8068 22.1531 32.9545 22.9107 32.9545C23.744 32.9545 24.566 32.7689 25.3766 32.3977C26.1872 32.0189 26.9258 31.4811 27.5925 30.7841C28.2592 30.0871 28.7895 29.2538 29.1834 28.2841C29.5773 27.3068 29.7743 26.2235 29.7743 25.0341H33.3084C33.3084 26.5038 33.1455 27.7841 32.8198 28.875C32.494 29.9583 32.0736 30.875 31.5584 31.625C31.0433 32.3674 30.4978 32.9621 29.922 33.4091C29.7402 33.5379 29.566 33.6667 29.3993 33.7955C29.2327 33.9242 29.0584 34.053 28.8766 34.1818C28.0584 34.9242 27.1001 35.4697 26.0016 35.8182C24.9107 36.1667 23.8387 36.3409 22.7857 36.3409ZM30.5117 36V12.7273H45.4208V16.2614H34.7276V22.5795H44.3981V26.1136H34.7276V36H30.5117Z"
	/>
</svg>
