<?xml version="1.0" encoding="utf-8"?>
<!-- Generator: Adobe Illustrator 27.5.0, SVG Export Plug-In . SVG Version: 6.00 Build 0)  -->
<svg version="1.1" xmlns="http://www.w3.org/2000/svg" xmlns:xlink="http://www.w3.org/1999/xlink" x="0px" y="0px"
	 viewBox="0 0 500 500" style="enable-background:new 0 0 500 500;" xml:space="preserve">
<g id="Space_2_">
	<g id="Space">
		<path id="Space_1_" style="fill:#263238;" d="M279.586,152.462c-13.321-9.283-24.567-23.968-34.719-36.104
			c-45.972-54.955-124.868-48.968-181.88-10.232c-21.463,14.583-36.575,30.503-44.802,56.046
			c-6.051,18.789-3.17,41.696,11.714,54.663c9.624,8.384,22.598,11.509,34.104,17.035c48.846,23.46,1.451,65.823-20.633,89.619
			c-16.889,18.198-24.046,36.399-18.657,61.563c8.281,38.663,51.673,63.839,86.387,73.458c51.68,14.32,102.567,4.241,122.231-2.695
			c39.488-13.929,75.272-37.589,105.755-66.084c21.521-20.117,40.905-42.68,64.522-60.289
			c14.353-10.702,30.092-19.433,44.471-30.101c14.379-10.667,27.665-23.71,34.661-40.19c10.083-23.747,2.007-52.766-17.372-69.396
			c-19.382-16.634-47.058-23.399-71.83-24.148C351.74,164.344,313.27,175.934,279.586,152.462z"/>
		<path id="XMLID_6378_" style="fill:#263238;" d="M287.996,138.358c27.607,20.229,65.38,15.007,97.988,13.892
			c8.547-0.292,19.047-3.56,24.333-10.283c6.664-8.477,2.886-17.566-3.558-26.211c-11.746-15.759-29.118-26.552-46.994-34.722
			c-21.865-9.993-38.53-17.505-84.951-20.68c-19.024-1.301-33.318,2.346-36.471,7.036c-5.853,8.707,1.653,16.879,7.484,25.322
			c10.81,15.653,23.622,29.921,38.025,42.348C285.201,136.225,286.584,137.323,287.996,138.358z"/>
	</g>
</g>
<g id="Planets">
	<g id="Planet_1_">
		<g id="Rings">
			<path style="opacity:0.3;fill:#FFFFFF;" d="M127.874,211.084c-23.687,0-42.956-19.27-42.956-42.956
				c0-23.686,19.27-42.956,42.956-42.956c23.686,0,42.956,19.27,42.956,42.956C170.83,191.814,151.56,211.084,127.874,211.084z
				 M127.874,126.171c-23.135,0-41.956,18.822-41.956,41.956c0,23.135,18.822,41.956,41.956,41.956
				c23.135,0,41.956-18.821,41.956-41.956C169.83,144.993,151.009,126.171,127.874,126.171z"/>
			<path style="opacity:0.2;fill:#FFFFFF;" d="M127.874,214.196c-25.402,0-46.068-20.666-46.068-46.068
				c0-25.402,20.666-46.068,46.068-46.068c25.402,0,46.068,20.666,46.068,46.068C173.942,193.53,153.276,214.196,127.874,214.196z
				 M127.874,123.06c-24.851,0-45.068,20.217-45.068,45.068s20.218,45.068,45.068,45.068s45.068-20.217,45.068-45.068
				S152.725,123.06,127.874,123.06z"/>
			<path style="opacity:0.1;fill:#FFFFFF;" d="M127.874,218.036c-27.52,0-49.909-22.389-49.909-49.908
				c0-27.52,22.389-49.908,49.909-49.908c27.52,0,49.908,22.389,49.908,49.908C177.782,195.648,155.394,218.036,127.874,218.036z
				 M127.874,119.22c-26.968,0-48.909,21.94-48.909,48.908c0,26.968,21.94,48.908,48.909,48.908
				c26.968,0,48.908-21.94,48.908-48.908C176.782,141.16,154.842,119.22,127.874,119.22z"/>
			<path style="opacity:0.1;fill:#FFFFFF;" d="M127.874,222.813c-30.153,0-54.685-24.531-54.685-54.685
				c0-30.153,24.532-54.685,54.685-54.685s54.685,24.531,54.685,54.685C182.559,198.281,158.027,222.813,127.874,222.813z
				 M127.874,114.443c-29.602,0-53.685,24.083-53.685,53.685c0,29.602,24.083,53.685,53.685,53.685
				c29.602,0,53.685-24.083,53.685-53.685C181.559,138.526,157.476,114.443,127.874,114.443z"/>
		</g>
		<g id="Planet_2_">
			<circle id="XMLID_15376_" style="fill:#27DEBF;" cx="127.874" cy="168.128" r="39.441"/>
			<circle id="XMLID_15374_" style="opacity:0.7;fill:#FFFFFF;" cx="127.874" cy="168.128" r="39.441"/>
			<g id="XMLID_15368_">
				<path id="XMLID_15373_" style="fill:#27DEBF;" d="M123.461,144.456c-0.281-0.675-0.578-1.335-0.885-1.975
					c-0.551-1.148-6.586-11.965-6.97-11.839c-2.406,0.787-4.71,1.796-6.887,3.009c2.397,3.563,5.407,7.046,7.541,10.719
					c1.571,2.702,2.504,5.717,3.526,8.671c0.436,1.259,0.899,2.53,1.677,3.612c0.778,1.081,1.921,1.967,3.242,2.144
					c0.213,0.029,0.438,0.037,0.636-0.046c0.471-0.198,0.596-0.797,0.635-1.306C126.304,153.149,125.153,148.518,123.461,144.456z"
					/>
				<path id="XMLID_15372_" style="fill:#27DEBF;" d="M156.767,194.964c-6.68-6.496-19.114-18.643-24.35-24.13
					c-3.965-4.155-9.442-6.04-13.436-10.024c-2.738-2.732-3.811-6.661-4.898-10.373c-0.611-2.087-1.735-8.669-4.863-7.927
					c-0.105,1.076,0.547,3.556-0.611,4.289c-1.046,0.662-2.031-1.447-2.405-2.079c-0.319-0.539-3.997-6.528-3.936-6.58
					c-1.13,0.966-2.205,1.993-3.22,3.079c3.469,6.403,9.054,16.678,10.322,18.801c1.87,3.132-0.011,6.591-2.328,3.233
					c-1.443-2.091-7.878-10.272-12.532-16.152c-1.512,2.393-2.777,4.956-3.752,7.661c3.661,5.371,7.834,11.969,13.798,15.027
					c1.988,1.019,4.451,1.368,6.444,0.36c1.346-0.681,2.414-1.933,3.884-2.273c1.843-0.426,3.653,0.709,5.187,1.817
					c3.17,2.29,6.255,4.701,9.189,7.287c1.32,1.164,3.143,2.43,4.144,3.883c0.607,0.881,0.721,2.81-0.273,3.53
					c0,0.37-1.438,0.309-1.64,0.257c-0.565-0.145-0.958-0.521-1.442-0.846c-1.312-0.881-2.71-1.655-4.059-2.479
					c-1.046-0.639-2.378-1.284-3.422-0.643c-0.141,1.08,0.62,2.051,1.354,2.854c2.636,2.884,5.558,5.508,8.709,7.818
					c0.602,0.441,1.225,0.878,1.939,1.096c0.714,0.218,1.543,0.185,2.142-0.26c0.618-0.459,0.91-1.282,1.575-1.67
					c0.623-0.364,1.437-0.244,2.063,0.116c1.421,0.817,2.503,2.373,3.859,3.341c1.321,0.942,5.618,5.138,6.506,6.294
					C152.91,198.712,154.938,196.933,156.767,194.964z"/>
				<path id="XMLID_15371_" style="fill:#27DEBF;" d="M127.874,207.569c5.077,0,9.924-0.97,14.381-2.716
					c-6.488-5.844-16.795-14.997-19.883-16.995c-2.75-1.779-4.653,0.99-6.273,2.873c-0.788,0.916-1.723,2.082-2.979,2.338
					c-1.842,0.376-3.632-1.539-3.678-3.309c-0.036-1.386,0.674-2.695,1.582-3.743c0.925-1.068,2.104-1.994,2.579-3.325
					c0.741-2.076-0.474-4.293-1.644-6.161c-0.47-0.75-1.028-1.564-1.892-1.753c-1.192-0.26-2.225,0.778-3.085,1.644
					c-1.025,1.033-2.167,1.949-3.397,2.724c-0.783,0.494-1.653,0.944-2.578,0.907c-1.012-0.041-1.9-0.653-2.724-1.242
					c-2.165-1.549-3.593-2.858-5.212-4.939c-0.806-1.035-1.603-2.078-2.393-3.126c-0.44-0.584-2.235-2.314-2.235-3.011
					c-0.001,0.131-0.01,0.26-0.01,0.391C88.433,189.911,106.091,207.569,127.874,207.569z"/>
				<path id="XMLID_15370_" style="fill:#27DEBF;" d="M143.978,132.126c-0.188,2.13,0.727,4.658,3.767,8.691
					c1.595,2.116,3.254,4.182,4.934,6.23c1.312,1.599,3.675,3.494,3.646,5.726c-0.019,1.488-1.13,2.725-2.28,3.671
					c-0.989,0.813-2.058,1.529-3.186,2.133c-0.927,0.496-2.038,1.128-2.057,2.179c-0.017,0.967,0.92,1.642,1.755,2.131
					c3.177,1.86,6.407,3.63,9.685,5.308c1.421,0.727,3.299,1.302,4.489,2.378c0.831,0.751,1.342,1.815,2.225,2.549
					c0.34-1.603,0.359-3.353,0.359-4.993C167.315,152.084,157.73,138.287,143.978,132.126z"/>
				<path id="XMLID_15369_" style="fill:#27DEBF;" d="M143.754,155.737c0.492-0.357,1.017-0.674,1.55-0.964
					c1.168-0.636,2.529-1.33,2.832-2.625c0.407-1.74-1.341-3.161-2.867-4.092c-1.588-0.969-3.176-1.938-4.764-2.907
					c-0.767-0.468-1.546-0.946-2.147-1.615c-0.638-0.711-1.04-1.599-1.409-2.481c-0.967-2.309-1.784-4.68-2.443-7.095
					c-0.243-0.889-0.742-4.849-2.104-5.005c-1.487-0.17-2.997-0.267-4.529-0.267c-1.654,0-3.282,0.114-4.883,0.312
					c0.799-0.05,2.623,4.759,2.875,5.476c1.105,3.14,2.304,6.325,2.917,9.628c0.597,3.215,4.595,4.823,7.117,6.581
					c0.357,0.249,0.733,0.522,0.889,0.928c0.187,0.489,0.005,1.038-0.218,1.512c-0.704,1.495-1.805,2.763-2.666,4.173
					c-0.861,1.41-1.493,3.093-1.107,4.7c0.359,1.494,1.519,2.641,2.628,3.704c8.424,8.063,17.319,15.817,25.297,24.255
					c1.686-2.533,3.09-5.27,4.161-8.169c0.284-0.779-4.317-4.483-4.919-4.962c-2.704-2.154-5.757-3.916-8.471-6.115
					c-2.526-2.046-5.052-4.093-7.578-6.14c-1.126-0.913-2.313-1.913-2.715-3.306c-0.384-1.332,0.051-2.803,0.879-3.915
					C142.546,156.723,143.123,156.196,143.754,155.737z"/>
			</g>
			<g id="XMLID_7081_" style="opacity:0.2;">
				<g>
					<path id="XMLID_54_" style="fill:#FFFFFF;" d="M132.287,191.8c0.281,0.675,0.577,1.335,0.884,1.975
						c0.551,1.148,6.586,11.965,6.971,11.839c2.406-0.787,4.71-1.796,6.887-3.009c-2.397-3.563-5.407-7.046-7.541-10.719
						c-1.571-2.702-2.504-5.717-3.526-8.671c-0.436-1.259-0.899-2.53-1.677-3.612s-1.921-1.967-3.242-2.144
						c-0.213-0.029-0.438-0.037-0.636,0.046c-0.471,0.198-0.596,0.797-0.635,1.306C129.444,183.107,130.594,187.737,132.287,191.8z"
						/>
					<path id="XMLID_53_" style="fill:#FFFFFF;" d="M98.981,141.291c6.68,6.496,19.113,18.643,24.349,24.13
						c3.965,4.155,9.442,6.04,13.436,10.024c2.738,2.732,3.811,6.661,4.898,10.373c0.611,2.087,1.735,8.669,4.863,7.927
						c0.105-1.076-0.547-3.556,0.611-4.289c1.046-0.662,2.03,1.447,2.405,2.079c0.319,0.539,3.997,6.528,3.936,6.58
						c1.13-0.966,2.205-1.993,3.22-3.079c-3.469-6.403-9.054-16.678-10.322-18.801c-1.87-3.132,0.011-6.591,2.328-3.233
						c1.443,2.091,7.878,10.272,12.532,16.152c1.512-2.393,2.777-4.956,3.752-7.661c-3.661-5.371-7.834-11.969-13.798-15.027
						c-1.988-1.019-4.451-1.368-6.444-0.36c-1.346,0.681-2.414,1.933-3.884,2.273c-1.843,0.426-3.653-0.709-5.186-1.817
						c-3.17-2.29-6.255-4.701-9.189-7.287c-1.32-1.164-3.142-2.43-4.144-3.883c-0.607-0.881-0.721-2.81,0.273-3.53
						c0-0.37,1.438-0.309,1.64-0.257c0.565,0.145,0.958,0.521,1.442,0.846c1.312,0.881,2.71,1.655,4.059,2.479
						c1.046,0.639,2.378,1.284,3.422,0.643c0.141-1.08-0.62-2.051-1.354-2.854c-2.636-2.884-5.558-5.508-8.709-7.818
						c-0.602-0.441-1.226-0.878-1.939-1.096c-0.714-0.218-1.543-0.185-2.142,0.26c-0.618,0.459-0.91,1.282-1.575,1.67
						c-0.623,0.364-1.437,0.244-2.062-0.116c-1.421-0.817-2.503-2.373-3.859-3.341c-1.321-0.942-5.618-5.138-6.506-6.294
						C102.838,137.544,100.81,139.323,98.981,141.291z"/>
					<path id="XMLID_52_" style="fill:#FFFFFF;" d="M127.874,128.686c-5.077,0-9.924,0.97-14.381,2.716
						c6.488,5.844,16.795,14.997,19.883,16.995c2.75,1.779,4.653-0.99,6.273-2.873c0.788-0.916,1.723-2.082,2.979-2.338
						c1.842-0.376,3.632,1.539,3.678,3.309c0.036,1.386-0.674,2.695-1.582,3.743c-0.925,1.068-2.104,1.994-2.579,3.325
						c-0.741,2.076,0.474,4.293,1.644,6.161c0.469,0.75,1.028,1.564,1.892,1.753c1.192,0.26,2.225-0.778,3.085-1.644
						c1.025-1.033,2.167-1.949,3.397-2.724c0.783-0.494,1.653-0.944,2.578-0.907c1.012,0.041,1.9,0.653,2.724,1.242
						c2.165,1.549,3.593,2.858,5.212,4.939c0.806,1.035,1.603,2.078,2.393,3.126c0.44,0.584,2.235,2.314,2.235,3.011
						c0.001-0.131,0.01-0.26,0.01-0.391C167.315,146.345,149.657,128.686,127.874,128.686z"/>
					<path id="XMLID_51_" style="fill:#FFFFFF;" d="M111.77,204.13c0.188-2.13-0.727-4.658-3.767-8.691
						c-1.595-2.116-3.254-4.182-4.934-6.23c-1.312-1.599-3.675-3.494-3.646-5.726c0.019-1.488,1.13-2.725,2.28-3.671
						c0.989-0.813,2.058-1.529,3.187-2.133c0.927-0.496,2.038-1.128,2.057-2.179c0.017-0.967-0.92-1.642-1.755-2.131
						c-3.177-1.86-6.407-3.63-9.685-5.308c-1.421-0.727-3.299-1.302-4.489-2.378c-0.831-0.751-1.342-1.815-2.225-2.549
						c-0.339,1.603-0.358,3.352-0.358,4.993C88.433,184.172,98.018,197.968,111.77,204.13z"/>
					<path id="XMLID_50_" style="fill:#FFFFFF;" d="M111.993,180.518c-0.492,0.357-1.017,0.674-1.55,0.964
						c-1.168,0.636-2.529,1.33-2.832,2.625c-0.407,1.74,1.341,3.161,2.867,4.092c1.588,0.969,3.176,1.938,4.764,2.907
						c0.767,0.468,1.546,0.946,2.147,1.615c0.638,0.711,1.04,1.599,1.409,2.481c0.967,2.309,1.784,4.68,2.443,7.095
						c0.243,0.889,0.742,4.849,2.104,5.005c1.487,0.17,2.997,0.267,4.53,0.267c1.654,0,3.281-0.114,4.883-0.312
						c-0.799,0.05-2.623-4.759-2.875-5.476c-1.105-3.14-2.304-6.325-2.917-9.628c-0.597-3.215-4.595-4.823-7.116-6.581
						c-0.357-0.249-0.733-0.522-0.889-0.928c-0.187-0.489-0.005-1.038,0.218-1.512c0.704-1.495,1.804-2.763,2.666-4.173
						c0.861-1.41,1.493-3.093,1.107-4.7c-0.359-1.494-1.519-2.641-2.629-3.703c-8.424-8.064-17.319-15.818-25.297-24.255
						c-1.686,2.533-3.09,5.27-4.16,8.169c-0.284,0.779,4.317,4.483,4.919,4.962c2.704,2.154,5.757,3.916,8.471,6.115
						c2.526,2.046,5.052,4.093,7.578,6.14c1.126,0.913,2.313,1.913,2.715,3.306c0.384,1.332-0.051,2.803-0.879,3.915
						C113.201,179.533,112.625,180.059,111.993,180.518z"/>
				</g>
			</g>
			<path id="XMLID_15355_" style="opacity:0.1;" d="M166.872,174.052c-2.913,14.573-29.209,27.958-50.287,18.932
				c-22.41-9.597-26.63-39.901-15.659-53.638l-0.001-0.014c-7.687,7.197-12.493,17.435-12.493,28.796
				c0,21.783,17.658,39.441,39.441,39.441C147.643,207.569,164.014,193.024,166.872,174.052z"/>
			
				<ellipse id="XMLID_15341_" transform="matrix(0.1602 -0.9871 0.9871 0.1602 -34.4419 258.7732)" style="opacity:0.6;fill:#FFFFFF;" cx="134.855" cy="149.627" rx="16.619" ry="16.619"/>
			<circle id="XMLID_15340_" style="opacity:0.6;fill:#FFFFFF;" cx="155.733" cy="167.478" r="7.612"/>
			<path id="XMLID_15339_" style="opacity:0.1;" d="M88.433,168.128c0,21.783,17.658,39.441,39.441,39.441
				c14.174,0,26.6-7.477,33.552-18.701c-0.888,1.39-12.043,18.938-39.621,13.891c-28.708-5.254-33.371-34.62-32.89-40.814
				C88.598,163.959,88.433,166.024,88.433,168.128z"/>
		</g>
	</g>
	<g id="XMLID_15455_">
		<g id="XMLID_465_">
			
				<ellipse id="XMLID_4534_" transform="matrix(0.4327 -0.9016 0.9016 0.4327 -16.2638 484.4578)" style="fill:#27DEBF;" cx="376.795" cy="255.151" rx="41.781" ry="41.781"/>
			<g id="XMLID_6450_">
				
					<ellipse id="XMLID_2_" transform="matrix(0.4327 -0.9016 0.9016 0.4327 -16.2638 484.4578)" style="opacity:0;fill:#FFFFFF;" cx="376.795" cy="255.151" rx="41.781" ry="41.781"/>
				
					<ellipse transform="matrix(0.3964 -0.9181 0.9181 0.3964 -6.6979 496.0641)" style="opacity:0.1167;fill:#FFFFFF;" cx="373.918" cy="253.126" rx="37.004" ry="37.004"/>
				
					<ellipse transform="matrix(0.4238 -0.9057 0.9057 0.4238 -13.6451 480.7514)" style="opacity:0.2333;fill:#FFFFFF;" cx="371.041" cy="251.101" rx="32.227" ry="32.227"/>
				
					<ellipse transform="matrix(0.3802 -0.9249 0.9249 0.3802 -2.1746 494.9052)" style="opacity:0.35;fill:#FFFFFF;" cx="368.165" cy="249.075" rx="27.451" ry="27.451"/>
				
					<ellipse transform="matrix(0.377 -0.9262 0.9262 0.377 -1.2569 492.2307)" style="opacity:0.4667;fill:#FFFFFF;" cx="365.288" cy="247.05" rx="22.674" ry="22.674"/>
				
					<ellipse transform="matrix(0.9194 -0.3934 0.3934 0.9194 -67.174 162.3486)" style="opacity:0.5833;fill:#FFFFFF;" cx="362.412" cy="245.024" rx="17.897" ry="17.897"/>
				<path id="XMLID_1_" style="opacity:0.7;fill:#FFFFFF;" d="M354.656,255.179c-6.727-2.695-9.995-10.332-7.301-17.059
					c2.695-6.727,10.332-9.995,17.059-7.301c6.727,2.695,9.995,10.332,7.301,17.059C369.02,254.605,361.383,257.874,354.656,255.179
					z"/>
			</g>
			<path id="XMLID_6655_" style="opacity:0.05;fill:#455A64;" d="M415.58,270.689c-8.58,21.42-32.9,31.83-54.32,23.25
				c-0.68-0.27-1.34-0.56-1.99-0.86c16.67,0.1,32.48-9.85,39.05-26.26c8.31-20.74-1.19-44.21-21.26-53.46
				c5.09,0.03,10.26,1,15.27,3.01C413.75,224.949,424.16,249.269,415.58,270.689z"/>
			<path id="XMLID_488_" style="opacity:0.1;fill:#455A64;" d="M401.982,225.706c16.108,14.153,17.693,38.679,3.544,54.783
				c-8.615,9.805-21.074,14.228-33.132,12.995c9.274-1.392,18.112-5.942,24.779-13.53c15.011-17.085,13.33-43.098-3.755-58.109
				c-1.711-1.504-3.511-2.835-5.378-4.001C393.037,219.413,397.795,222.026,401.982,225.706z"/>
			<path id="XMLID_487_" style="opacity:0.5;fill:#FFFFFF;" d="M354.391,282.779c-6.727-2.695-9.995-10.332-7.301-17.059
				c2.695-6.727,10.332-9.995,17.059-7.301c6.727,2.695,9.995,10.332,7.301,17.059C368.755,282.206,361.117,285.474,354.391,282.779
				z"/>
			<path id="XMLID_486_" style="opacity:0.5;fill:#FFFFFF;" d="M360.783,245.305c-6.727-2.695-9.995-10.332-7.301-17.059
				c2.695-6.727,10.332-9.995,17.059-7.301c6.727,2.695,9.995,10.332,7.301,17.059C375.148,244.731,367.51,248,360.783,245.305z"/>
			<path id="XMLID_485_" style="opacity:0.5;fill:#FFFFFF;" d="M342.864,254.339c-3.316-1.329-4.927-5.094-3.599-8.41
				c1.328-3.316,5.093-4.927,8.409-3.599c3.316,1.328,4.927,5.093,3.599,8.41C349.946,254.056,346.18,255.667,342.864,254.339z"/>
		</g>
		<g id="XMLID_479_">
			<g id="XMLID_6632_" style="opacity:0.1;">
				<g id="XMLID_6654_">
					<path id="XMLID_7007_" style="fill:#FFFFFF;" d="M460.21,215.129c-1.38-2.44-4.9-6.52-12.99-6.52
						c-8.42,0-22.2,4.26-40.98,12.67l-2.27,1.02c-0.29,0.12-0.59,0.25-0.88,0.38c0.29,0.23,0.58,0.46,0.86,0.72
						c0.14-0.06,0.28-0.12,0.42-0.18l2.28-1.03c18.65-8.35,32.3-12.58,40.57-12.58c7.58,0,10.85,3.77,12.12,6.01
						c5.6,9.88-5.18,23.07-36.04,44.11c-1.81,1.24-3.66,2.48-5.55,3.71c-8.22,5.4-17.1,10.81-26.47,16.11
						c-9.61,5.45-19.36,10.56-28.54,14.95c-2.05,0.98-4.07,1.93-6.05,2.83c-19.93,9.12-34.43,13.74-43.12,13.74
						c-7.59,0-10.85-3.77-12.12-6.01c-5.4-9.53,3.8-21.45,31.74-41.13l2.05-1.44c0.12-0.09,0.25-0.18,0.37-0.27
						c-0.07-0.36-0.12-0.72-0.17-1.09c-0.26,0.18-0.52,0.36-0.78,0.55l-2.04,1.44c-28.47,20.04-37.75,32.34-32.04,42.43
						c1.37,2.44,4.9,6.52,12.99,6.52c8.83,0,23.48-4.65,43.54-13.83c2.28-1.04,4.61-2.14,6.98-3.28c8.92-4.3,18.37-9.26,27.69-14.54
						c9.07-5.14,17.67-10.36,25.67-15.59c2.19-1.43,4.33-2.86,6.42-4.28C455.259,239.149,466.12,225.559,460.21,215.129z"/>
				</g>
			</g>
			<g id="XMLID_6631_" style="opacity:0.1;">
				<g id="XMLID_6653_">
					<path id="XMLID_4476_" style="fill:#FFFFFF;" d="M421.61,257.249c-1.07,0.73-2.15,1.45-3.24,2.18
						c-8.79,5.86-18.38,11.75-28.57,17.52c-10.41,5.89-20.98,11.39-30.8,16c-1.2,0.57-2.39,1.12-3.56,1.66
						c-13.43,6.14-31.59,13.46-41.87,13.46c-5.76,0-8.35-2.44-9.51-4.49c-4.33-7.65,5.19-19.12,30.86-37.19l1.37-0.97
						c0.08,0.34,0.18,0.68,0.28,1.02l-1.07,0.76c-25.16,17.72-34.59,28.79-30.57,35.89c1.03,1.81,3.36,3.98,8.64,3.98
						c10.1,0,28.12-7.27,41.46-13.37c0.93-0.43,1.87-0.86,2.82-1.31c9.99-4.68,20.81-10.28,31.46-16.31
						c10.42-5.91,20.22-11.93,29.17-17.92v-0.01c0.87-0.57,1.72-1.15,2.57-1.73c36.73-25.04,37.46-34.15,34.81-38.83
						c-1.03-1.81-3.36-3.98-8.64-3.98c-9.6,0-26.47,6.65-38.93,12.23l-1.19,0.54c-0.25-0.26-0.49-0.52-0.75-0.77l1.53-0.68
						c12.55-5.62,29.57-12.32,39.34-12.32c5.76,0,8.35,2.44,9.51,4.49C459.57,222.119,459.03,231.739,421.61,257.249z"/>
				</g>
			</g>
			<g id="XMLID_6600_" style="opacity:0.2;">
				<g id="XMLID_6644_">
					<path id="XMLID_4507_" style="fill:#FFFFFF;" d="M419.92,254.769c-0.44,0.3-0.89,0.61-1.34,0.91
						c-9.24,6.24-19.41,12.51-30.26,18.65c-11.09,6.28-22.34,12.1-32.66,16.88c-0.49,0.22-0.98,0.45-1.46,0.67
						c-18.6,8.5-33.03,13.19-40.63,13.19c-3.46,0-5.79-1-6.9-2.97c-3.31-5.84,6.5-16.72,29.98-33.26l0.54-0.38
						c0.11,0.33,0.22,0.65,0.35,0.97v0.01l-0.32,0.22c-28.22,19.88-31.72,28.34-29.68,31.95c0.92,1.63,2.95,2.46,6.03,2.46
						c7.46,0,21.74-4.65,40.21-13.1c0.28-0.13,0.57-0.26,0.85-0.39c10.46-4.82,21.93-10.72,33.2-17.12
						c11.04-6.26,21.38-12.64,30.75-18.99c0.26-0.18,0.52-0.35,0.78-0.53c24.95-17.01,36.99-29.4,33.89-34.87
						c-0.92-1.63-2.95-2.46-6.03-2.46c-7.08,0-20.47,4.25-37.71,11.97l-0.34,0.15c-0.22-0.27-0.44-0.53-0.66-0.79l0.6-0.27
						c17.36-7.78,30.9-12.06,38.11-12.06c3.46,0,5.79,1,6.9,2.97C457.61,224.739,446.11,236.919,419.92,254.769z"/>
				</g>
			</g>
			<g id="XMLID_6603_" style="opacity:0.3;">
				<g id="XMLID_6634_">
					<path id="XMLID_4506_" style="fill:#FFFFFF;" d="M428.6,231.359l-0.2,0.55c-0.4,1.09-2.32,4.37-11.51,11.52
						c-0.16,0.12-0.32,0.25-0.49,0.38c-8.53,6.6-20.31,14.24-33.17,21.53c-13.42,7.6-26.43,13.93-36.65,17.82
						c-0.2,0.08-0.4,0.15-0.6,0.23c-6.17,2.31-11,3.59-13.65,3.59c-0.39,0-0.73-0.03-1-0.08l-0.57-0.12l0.2-0.55
						c0.36-0.96,2.01-3.87,9.71-10.1c0.16,0.3,0.33,0.59,0.51,0.88c-6.2,5.02-8.29,7.75-8.99,8.97h0.14c2.5,0,7.07-1.2,12.94-3.39
						c0.31-0.12,0.63-0.24,0.95-0.36c10.17-3.88,23.14-10.19,36.51-17.76c12.83-7.27,24.57-14.88,33.06-21.45
						c0.27-0.21,0.53-0.41,0.79-0.61c7.44-5.83,9.83-8.92,10.59-10.24h-0.14c-2.53,0-7.23,1.25-13.27,3.52
						c-0.15-0.3-0.31-0.6-0.48-0.89c6.2-2.34,11.08-3.63,13.75-3.63c0.39,0,0.72,0.03,0.99,0.08L428.6,231.359z"/>
				</g>
			</g>
			<path id="XMLID_6656_" style="opacity:0;fill:#FFFFFF;" d="M418.58,254.469c0.01,0.4,0.01,0.8,0,1.21c0,0.82-0.04,1.64-0.1,2.47
				v0.01c-0.03,0.42-0.07,0.84-0.11,1.27c-0.14,1.34-0.34,2.68-0.62,4.01c-0.09,0.46-0.19,0.93-0.3,1.39
				c-0.47,1.97-1.09,3.93-1.87,5.86c-8.2,20.48-30.8,30.9-51.49,24.27c-0.45-0.15-0.9-0.3-1.35-0.46c-0.5-0.18-0.99-0.36-1.48-0.56
				c-0.77-0.31-1.52-0.64-2.26-0.99c-0.39-0.18-0.77-0.36-1.15-0.56c-0.75-0.37-1.48-0.77-2.19-1.18c-0.35-0.21-0.69-0.42-1.03-0.63
				c-3.24-2.02-6.14-4.45-8.65-7.19c-0.24-0.26-0.47-0.53-0.71-0.8c0.31-0.12,0.63-0.24,0.95-0.36
				c10.17-3.88,23.14-10.19,36.51-17.76c12.83-7.27,24.57-14.88,33.06-21.45c0.27-0.21,0.53-0.41,0.79-0.61
				c0.12,0.34,0.22,0.68,0.31,1.02C417.95,246.989,418.52,250.699,418.58,254.469z"/>
		</g>
		
			<linearGradient id="XMLID_00000047039063253964846310000004055770818070001032_" gradientUnits="userSpaceOnUse" x1="2184.5884" y1="-2018.401" x2="2222.2185" y2="-2058.4985" gradientTransform="matrix(0.3719 -0.9283 0.9283 0.3719 1455.4635 3068.6272)">
			<stop  offset="0" style="stop-color:#455A64;stop-opacity:0"/>
			<stop  offset="0.4892" style="stop-color:#37998F;stop-opacity:0.4892"/>
			<stop  offset="1" style="stop-color:#27DEBF"/>
		</linearGradient>
		<path id="XMLID_478_" style="fill:url(#XMLID_00000047039063253964846310000004055770818070001032_);" d="M451.945,219.81
			c2.616,4.618-11.154,17.703-33.432,32.894c-9.205,6.272-19.867,12.907-31.423,19.455c-11.969,6.78-23.533,12.688-33.935,17.446
			c-23.932,10.944-41.735,15.816-44.314,11.263c-2.444-4.322,9.457-16.049,29.245-29.985c0.549,1.337,1.16,2.647,1.841,3.923
			c-7.494,6.03-11.517,10.689-10.394,12.672c1.178,2.081,7.803,0.817,17.579-2.911c9.865-3.762,22.94-10.042,36.852-17.924
			c13.382-7.583,25.093-15.26,33.354-21.646c8.839-6.823,13.73-12.167,12.508-14.329c-1.169-2.058-7.682-0.838-17.312,2.81
			c-0.736-1.216-1.533-2.393-2.389-3.531C432.8,219.798,449.459,215.42,451.945,219.81z"/>
	</g>
</g>
<g id="Rocket">
	<g id="Rocket_1_">
		<g id="XMLID_22_">
			<g id="XMLID_66_">
				<path id="XMLID_70_" style="fill:#F5F5F5;" d="M238.898,281.957c0-2.921-2.051-6.472-4.58-7.932
					c-1.1-0.635-2.096-0.744-2.886-0.453l-0.015-0.025l-19.841,7.721l9.727,16.725l16.56-13.285l-0.014-0.025
					C238.495,284.144,238.898,283.227,238.898,281.957z"/>
				<path id="XMLID_69_" style="fill:#27DEBF;" d="M227.909,274.912c0.834-0.227,1.844-0.091,2.959,0.552
					c2.795,1.614,5.061,5.538,5.061,8.766c0,1.272-0.379,2.206-0.98,2.816l1.611-1.292l1.289-1.071
					c0.646-0.539,1.049-1.455,1.049-2.725c0-2.921-2.051-6.472-4.58-7.932c-1.1-0.635-2.096-0.744-2.886-0.453l-1.684,0.624
					L227.909,274.912z"/>
				<path id="XMLID_68_" style="opacity:0.1;fill:#455A64;" d="M238.486,279.551l-20.893,12.062l3.71,6.379l16.56-13.285
					l-0.014-0.025c0.646-0.539,1.049-1.455,1.049-2.725C238.898,281.182,238.746,280.364,238.486,279.551z"/>
				<path id="XMLID_67_" style="fill:#E0E0E0;" d="M215.999,281.958c3.794,2.19,6.869,7.517,6.869,11.898
					c0,4.381-3.075,6.156-6.869,3.966c-3.794-2.19-6.869-7.517-6.869-11.898C209.13,281.544,212.205,279.768,215.999,281.958z"/>
			</g>
			<g id="XMLID_61_">
				<path id="XMLID_65_" style="fill:#F5F5F5;" d="M232.695,263.261c0-2.921-2.05-6.472-4.58-7.933
					c-1.1-0.635-2.096-0.744-2.886-0.453l-0.015-0.025l-19.841,7.721l9.727,16.725l16.56-13.285l-0.014-0.025
					C232.292,265.448,232.695,264.531,232.695,263.261z"/>
				<path id="XMLID_64_" style="fill:#27DEBF;" d="M221.706,256.216c0.834-0.227,1.844-0.091,2.959,0.552
					c2.795,1.614,5.061,5.538,5.061,8.766c0,1.272-0.379,2.205-0.98,2.815l1.611-1.292l1.289-1.071
					c0.646-0.539,1.049-1.455,1.049-2.725c0-2.921-2.05-6.472-4.58-7.933c-1.1-0.635-2.096-0.744-2.886-0.453l-1.684,0.624
					L221.706,256.216z"/>
				<path id="XMLID_63_" style="opacity:0.1;fill:#455A64;" d="M232.283,260.855l-20.893,12.062l3.71,6.379l16.56-13.285
					l-0.014-0.025c0.646-0.539,1.049-1.455,1.049-2.725C232.695,262.486,232.543,261.668,232.283,260.855z"/>
				<path id="XMLID_62_" style="fill:#E0E0E0;" d="M209.796,263.262c3.794,2.19,6.869,7.517,6.869,11.898
					c0,4.381-3.075,6.156-6.869,3.966c-3.794-2.19-6.869-7.517-6.869-11.898C202.927,262.848,206.002,261.072,209.796,263.262z"/>
			</g>
			<g id="XMLID_55_">
				<polygon id="XMLID_59_" style="fill:#27DEBF;" points="111.356,323.293 133.76,297.422 139.36,255.382 150.563,248.915 
					195.373,274.786 				"/>
				<polygon id="XMLID_58_" style="opacity:0.6;fill:#FFFFFF;" points="111.356,323.293 133.76,297.422 139.36,255.382 
					150.563,248.915 195.373,274.786 				"/>
				<polygon id="XMLID_57_" style="fill:#27DEBF;" points="150.563,248.915 139.36,255.382 184.171,281.254 195.373,274.786 				"/>
				<polygon id="XMLID_56_" style="opacity:0.3;fill:#455A64;" points="150.563,248.915 139.36,255.382 184.171,281.254 
					195.373,274.786 				"/>
			</g>
			<g id="XMLID_38_">
				<path id="XMLID_49_" style="fill:#27DEBF;" d="M212.176,258.544c-3.916-2.261-7.543-2.923-10.521-2.206
					c-0.772,0.179-1.489,0.455-2.151,0.827l-0.441,0.248l-67.295,38.858c-11.048,6.38-20.452,15.254-27.461,25.914L82.674,355.09
					l4.311,6.076l33.259-5.332c10.352-1.66,20.313-5.198,29.392-10.44l75.653-43.676c2.648-1.641,4.426-4.73,4.936-9.018
					c0.097-0.827,0.152-1.696,0.152-2.62C230.377,278.47,222.228,264.35,212.176,258.544z"/>
				<path id="XMLID_48_" style="opacity:0.9;fill:#FFFFFF;" d="M212.176,258.544c-3.916-2.261-7.543-2.923-10.521-2.206
					c-0.772,0.179-1.489,0.455-2.151,0.827l-0.441,0.248l-67.295,38.858c-11.048,6.38-20.452,15.254-27.461,25.914L82.674,355.09
					l4.311,6.076l33.259-5.332c10.352-1.66,20.313-5.198,29.392-10.44l75.653-43.676c2.648-1.641,4.426-4.73,4.936-9.018
					c0.097-0.827,0.152-1.696,0.152-2.62C230.377,278.47,222.228,264.35,212.176,258.544z"/>
				<path id="XMLID_47_" style="fill:#27DEBF;" d="M216.642,306.689c2.648-1.641,4.426-4.73,4.937-9.018
					c0.097-0.828,0.151-1.696,0.151-2.62c0-11.61-8.149-25.73-18.201-31.535c-3.916-2.261-7.542-2.923-10.521-2.206
					c-0.772,0.179-1.489,0.455-2.151,0.827l8.647-4.971c0.662-0.372,1.379-0.648,2.151-0.827c2.978-0.717,6.605-0.055,10.521,2.206
					c10.052,5.805,18.201,19.925,18.201,31.535c0,0.924-0.055,1.793-0.152,2.62c-0.51,4.288-2.289,7.377-4.936,9.018
					L216.642,306.689z"/>
				<path id="XMLID_46_" style="fill:#27DEBF;" d="M89.412,349.207c-0.882-0.51-1.724-0.717-2.441-0.648l-2.44,3.709l-1.862,2.827
					l0.002,0.002C82.248,355.73,82,356.49,82,357.308c0,2.201,1.784,3.984,3.984,3.984c0.346,0,0.674-0.058,0.994-0.14l0.007,0.01
					l2.841-0.455l3.833-0.621c0.317-0.441,0.524-1.02,0.607-1.71c0.028-0.221,0.041-0.455,0.041-0.703
					C94.308,354.557,92.115,350.765,89.412,349.207z"/>
				<path id="XMLID_45_" style="opacity:0.6;fill:#FFFFFF;" d="M133.759,313.592c9.827-5.811,57.328-33.182,85.439-49.366
					c-2.161-2.293-4.533-4.244-7.022-5.682c-3.916-2.261-7.543-2.923-10.521-2.206c-0.772,0.179-1.489,0.455-2.151,0.827
					l-0.441,0.248l-67.295,38.858c-11.048,6.38-20.452,15.254-27.461,25.914l-20.873,31.75l-0.764,1.16l0.002,0.002
					C82.248,355.73,82,356.49,82,357.308c0,1.015,0.391,1.93,1.016,2.634c-1.98-4.311,15.77-15.896,25.611-25.18
					C118.468,325.478,128.23,316.862,133.759,313.592z"/>
				<path id="XMLID_44_" style="fill:#27DEBF;" d="M123.933,335.869c-2.824-5.8-7.084-10.649-11.688-13.301
					c-2.298-1.329-4.624-2.036-6.751-2.078c-0.394,0.567-0.807,1.118-1.187,1.696l-8.998,13.686l1.089-0.105
					c0.136-0.012,0.275-0.019,0.416-0.019c1.107,0,2.375,0.396,3.672,1.145c2.514,1.45,4.958,4.11,6.705,7.296l0.634,1.158
					l16.708-8.244L123.933,335.869z"/>
				<path id="XMLID_43_" style="fill:#455A64;" d="M111.554,323.761c-2.548-1.473-4.977-2.071-7.048-1.871l-8.24,12.505
					c1.442-0.139,3.134,0.277,4.909,1.303c2.86,1.648,5.427,4.544,7.226,7.827l14.293-7.053
					C120.106,331.159,116.083,326.372,111.554,323.761z"/>
				<path id="XMLID_42_" style="opacity:0.1;fill:#FFFFFF;" d="M111.554,323.761c-2.548-1.473-4.977-2.071-7.048-1.871l-8.24,12.505
					c0.558-0.054,1.162,0.002,1.785,0.118c1.129-1.264,2.274-3.287,4.222-2.923c2.252,0.421,3.952,2.702,5.833,3.855
					c0.988,0.606,2.203,0.975,3.314,0.643c1.013-0.302,1.769-1.119,2.577-1.8c0.808-0.681,1.854-1.277,2.875-1.004
					c1.12,0.299,1.561,1.377,2.003,2.326c0.106,0.227,1.056,2.226,0.953,2.277c0.016-0.008,2.866-1.414,2.866-1.414
					C120.106,331.159,116.083,326.372,111.554,323.761z"/>
				<path id="XMLID_41_" style="opacity:0.05;fill:#FFFFFF;" d="M104.469,329.022c0.025,0.016,0.05,0.033,0.076,0.05
					c0.909,0.604,1.852,1.158,2.822,1.659c0.816,0.421,1.897,0.775,2.575,0.156c0.652-0.595,0.525-1.784,1.253-2.284
					c0.288-0.198,0.654-0.24,1.003-0.257c3.097-0.154,6.569,1.84,8.346,4.344c-2.442-3.742-5.571-6.956-8.991-8.927
					c-2.548-1.473-4.977-2.071-7.048-1.871l-4.833,7.335C101.436,327.918,102.678,327.855,104.469,329.022z"/>
				<path id="XMLID_40_" style="opacity:0.15;fill:#27DEBF;" d="M230.226,292.7c0.097-0.827,0.152-1.696,0.152-2.62
					c0-1.007-0.083-2.036-0.201-3.073c-23.37,13.441-80.383,46.253-90.816,52.455c-13.187,7.84-45.647,18.954-54.008,19.403
					c-1.989,0.107-2.704-1.429-2.653-3.816l-0.03,0.046l0.002,0.002C82.248,355.73,82,356.49,82,357.308
					c0,2.201,1.784,3.984,3.984,3.984c0.345,0,0.673-0.058,0.992-0.14l0.009,0.013l33.259-5.332
					c10.352-1.66,20.313-5.198,29.392-10.44l75.653-43.676C227.937,300.077,229.715,296.988,230.226,292.7z"/>
				<path id="XMLID_39_" style="opacity:0.6;fill:#455A64;" d="M86.978,361.152l0.007,0.01l2.841-0.455l3.833-0.621
					c0.317-0.441,0.524-1.02,0.606-1.71c0.028-0.221,0.042-0.455,0.042-0.703c0-0.196-0.033-0.4-0.05-0.6
					c-3.867,1.036-7.009,1.69-8.905,1.792c-1.989,0.107-2.704-1.429-2.653-3.816l-0.03,0.046l0.001,0.002
					C82.248,355.73,82,356.49,82,357.308c0,2.201,1.784,3.985,3.984,3.985c0.315,0,0.615-0.051,0.908-0.122
					C86.921,361.163,86.95,361.16,86.978,361.152z"/>
			</g>
			<g id="XMLID_28_">
				<polygon id="XMLID_37_" style="fill:#27DEBF;" points="268.188,316.826 223.378,290.955 139.361,339.462 139.36,339.462 
					184.171,329.761 256.986,326.527 268.188,320.06 				"/>
				<polygon id="XMLID_36_" style="opacity:0.6;fill:#FFFFFF;" points="268.188,316.826 223.378,290.955 139.361,339.462 
					139.36,339.462 184.171,329.761 256.986,326.527 268.188,320.06 				"/>
				<polygon id="XMLID_35_" style="fill:#27DEBF;" points="184.171,329.761 184.171,326.527 139.361,339.462 139.36,339.462 				"/>
				<polygon id="XMLID_34_" style="fill:#27DEBF;" points="184.171,326.527 256.986,323.293 256.986,326.527 184.171,329.761 				
					"/>
				<polygon id="XMLID_33_" style="opacity:0.3;fill:#FFFFFF;" points="184.171,326.527 256.986,323.293 256.986,326.527 
					184.171,329.761 				"/>
				<polygon id="XMLID_32_" style="fill:#27DEBF;" points="212.177,297.422 256.986,323.293 268.188,316.826 223.378,290.955 				
					"/>
				<polygon id="XMLID_31_" style="opacity:0.3;fill:#455A64;" points="212.177,297.422 256.986,323.293 268.188,316.826 
					223.378,290.955 				"/>
				<polygon id="XMLID_30_" style="fill:#27DEBF;" points="268.188,316.826 256.986,323.293 256.986,326.527 268.188,320.06 				"/>
				<polygon id="XMLID_29_" style="opacity:0.5;fill:#455A64;" points="268.188,316.826 256.986,323.293 256.986,326.527 
					268.188,320.06 				"/>
			</g>
			<g id="XMLID_23_">
				<polygon id="XMLID_27_" style="fill:#27DEBF;" points="220.589,218.213 214.988,221.446 186.983,269.954 189.772,271.552 
					212.236,258.579 223.378,219.811 				"/>
				<polygon id="XMLID_26_" style="fill:#27DEBF;" points="189.772,271.552 212.236,258.579 223.378,219.811 217.777,223.045 				
					"/>
				<polygon id="XMLID_25_" style="opacity:0.5;fill:#FFFFFF;" points="214.988,221.446 217.777,223.045 223.378,219.811 
					220.589,218.213 				"/>
				<polygon id="XMLID_24_" style="opacity:0.6;fill:#455A64;" points="217.777,223.045 189.772,271.552 212.236,258.579 
					223.378,219.811 				"/>
			</g>
		</g>
		<g id="XMLID_14_">
			<path id="XMLID_21_" style="opacity:0.8;fill:#27DEBF;" d="M230.017,260.768c-2.228-3.859-3.442-10.987,3.178-15.356
				c6.619-4.369,11.867-1.918,11.867-1.918s-2.495,2.036-2.424,3.911c0,0,7.17-6.291,12.548-3.632c0,0-4.395,2.154-3.769,4.092
				c0.626,1.938,8.272-1.601,10.926-5.159c0,0,0.378,3.11-2.735,6.945c-3.113,3.836-9.752,6.888-9.752,6.888
				s2.298,1.137,5.038-0.281c0,0-4.175,6.516-9.955,9.306C239.16,268.354,233.007,265.945,230.017,260.768z"/>
			<path id="XMLID_20_" style="opacity:0.8;fill:#FFFFFF;" d="M233.277,258.837c-2.045-3.551,1.424-8.857,8.303-8.232
				c0,0-3.171,2.103-2.195,3.918c0.976,1.815,7.416-1.662,8.717-2.706c0,0-2.175,5.557-6.428,8.014
				C238.618,261.594,235.2,262.175,233.277,258.837z"/>
		</g>
		<g id="XMLID_8_">
			<path id="XMLID_12_" style="opacity:0.8;fill:#27DEBF;" d="M235.729,278.583c2.228,3.859,7.794,8.474,14.887,4.926
				c7.094-3.548,7.594-9.318,7.594-9.318s-3.011,1.143-4.599,0.144c0,0,9.033-3.064,9.419-9.051c0,0-4.063,2.729-5.428,1.218
				c-1.365-1.511,5.523-6.364,9.931-6.883c0,0-2.504-1.882-7.383-1.104c-4.878,0.778-11.102,6.053-11.102,6.053
				s-0.411-2.622,1.749-4.949c0,0-6.456,0.033-11.762,3.643C233.731,266.872,232.74,273.405,235.729,278.583z"/>
			<path id="XMLID_10_" style="opacity:0.8;fill:#FFFFFF;" d="M239.031,276.726c2.052,3.547,8.382,3.195,11.281-3.074
				c0,0-3.407,1.695-4.491-0.058c-1.084-1.753,5.147-5.592,6.702-6.197c0,0-5.9-0.895-10.154,1.561
				C239.314,270.721,237.101,273.391,239.031,276.726z"/>
		</g>
	</g>
</g>
<g id="Stars_1_">
	<g id="XMLID_3582_">
		<path style="opacity:0.5;fill:#27DEBF;" d="M349.759,341.795c-4.627,0-8.392-3.765-8.392-8.392c0-4.627,3.765-8.392,8.392-8.392
			c4.627,0,8.392,3.765,8.392,8.392C358.15,338.03,354.386,341.795,349.759,341.795z M349.759,325.692
			c-4.252,0-7.712,3.46-7.712,7.711c0,4.252,3.46,7.711,7.712,7.711c4.252,0,7.712-3.459,7.712-7.711
			C357.471,329.151,354.011,325.692,349.759,325.692z"/>
		<path id="XMLID_3580_" style="fill:#FFFFFF;" d="M352.121,333.403c0,1.304-1.057,2.362-2.362,2.362
			c-1.304,0-2.362-1.057-2.362-2.362c0-1.304,1.057-2.362,2.362-2.362C351.063,331.041,352.121,332.099,352.121,333.403z"/>
	</g>
	<g id="XMLID_15357_">
		<path style="opacity:0.5;fill:#27DEBF;" d="M243.45,190.963c-7.287,0-13.215-5.928-13.215-13.215
			c0-7.287,5.928-13.216,13.215-13.216c7.287,0,13.215,5.929,13.215,13.216C256.665,185.035,250.737,190.963,243.45,190.963z
			 M243.45,165.212c-6.912,0-12.535,5.623-12.535,12.535c0,6.912,5.623,12.535,12.535,12.535c6.912,0,12.535-5.623,12.535-12.535
			C255.985,170.835,250.362,165.212,243.45,165.212z"/>
		<path id="XMLID_15358_" style="fill:#FFFFFF;" d="M247.227,177.747c0,2.086-1.691,3.776-3.777,3.776
			c-2.086,0-3.776-1.691-3.776-3.776c0-2.086,1.691-3.777,3.776-3.777C245.536,173.971,247.227,175.662,247.227,177.747z"/>
	</g>
	<g id="XMLID_4190_">
		<path style="opacity:0.5;fill:#27DEBF;" d="M349.213,139.763c-4.627,0-8.391-3.765-8.391-8.392c0-4.627,3.764-8.392,8.391-8.392
			c4.627,0,8.392,3.765,8.392,8.392C357.604,135.998,353.84,139.763,349.213,139.763z M349.213,123.659
			c-4.252,0-7.711,3.459-7.711,7.711c0,4.252,3.459,7.711,7.711,7.711c4.252,0,7.712-3.459,7.712-7.711
			C356.925,127.119,353.465,123.659,349.213,123.659z"/>
		<path id="XMLID_4379_" style="fill:#FFFFFF;" d="M351.575,131.371c0,1.304-1.057,2.362-2.362,2.362
			c-1.304,0-2.362-1.057-2.362-2.362c0-1.304,1.057-2.362,2.362-2.362C350.518,129.009,351.575,130.066,351.575,131.371z"/>
	</g>
	<g id="XMLID_7002_">
		<path style="opacity:0.5;fill:#27DEBF;" d="M45.681,197.733c-4.627,0-8.392-3.765-8.392-8.392c0-4.627,3.765-8.392,8.392-8.392
			c4.627,0,8.393,3.765,8.393,8.392C54.073,193.968,50.308,197.733,45.681,197.733z M45.681,181.629
			c-4.252,0-7.711,3.46-7.711,7.711c0,4.252,3.459,7.711,7.711,7.711c4.252,0,7.712-3.459,7.712-7.711
			C53.393,185.089,49.933,181.629,45.681,181.629z"/>
		<path id="XMLID_7012_" style="fill:#FFFFFF;" d="M48.043,189.341c0,1.304-1.057,2.362-2.362,2.362
			c-1.304,0-2.362-1.057-2.362-2.362c0-1.304,1.057-2.362,2.362-2.362C46.985,186.979,48.043,188.036,48.043,189.341z"/>
	</g>
	<g id="Stars">
		<g id="XMLID_15336_">
			<path id="XMLID_15338_" style="fill:#F0F0F0;" d="M386.478,120.51c-0.571-0.461-0.66-1.297-0.2-1.868
				c0.461-0.571,1.297-0.66,1.868-0.2c0.571,0.461,0.66,1.297,0.2,1.868C387.885,120.881,387.049,120.971,386.478,120.51z"/>
			<path id="XMLID_15337_" style="fill:#FAFAFA;" d="M382.535,124.34c-0.333-0.269-0.385-0.757-0.117-1.09
				c0.269-0.333,0.757-0.385,1.09-0.117c0.333,0.269,0.385,0.757,0.116,1.09C383.356,124.557,382.868,124.609,382.535,124.34z"/>
		</g>
		<g id="XMLID_15333_">
			<path id="XMLID_15335_" style="fill:#FAFAFA;" d="M274.472,330.105c0.43,0.415,0.443,1.099,0.028,1.529
				c-0.415,0.43-1.099,0.443-1.529,0.028c-0.43-0.415-0.443-1.099-0.028-1.529C273.357,329.703,274.042,329.69,274.472,330.105z"/>
			<path id="XMLID_15334_" style="fill:#FAFAFA;" d="M284.454,334.829c0.701,0.676,0.722,1.792,0.046,2.493
				c-0.676,0.701-1.792,0.722-2.493,0.046c-0.701-0.676-0.721-1.792-0.046-2.493C282.637,334.173,283.753,334.153,284.454,334.829z"
				/>
		</g>
		<g id="XMLID_15326_" style="opacity:0.5;">
			<path id="XMLID_15332_" style="fill:#FAFAFA;" d="M314.352,205.425c0.554-0.223,1.184,0.045,1.408,0.599
				c0.223,0.554-0.045,1.184-0.599,1.408c-0.554,0.223-1.184-0.045-1.407-0.599C313.53,206.278,313.798,205.648,314.352,205.425z"/>
			<path id="XMLID_15328_" style="fill:#FAFAFA;" d="M322.743,198.243c0.903-0.364,1.931,0.074,2.294,0.977
				c0.364,0.903-0.073,1.931-0.977,2.294s-1.931-0.074-2.294-0.977C321.402,199.635,321.839,198.607,322.743,198.243z"/>
		</g>
		<g id="XMLID_15322_" style="opacity:0.5;">
			<path id="XMLID_15325_" style="fill:#FAFAFA;" d="M330.077,370.574c0,0.974-0.789,1.763-1.763,1.763s-1.763-0.789-1.763-1.763
				c0-0.974,0.79-1.763,1.763-1.763S330.077,369.6,330.077,370.574z"/>
			<path id="XMLID_15324_" style="fill:#FAFAFA;" d="M324.808,375.392c0,0.581-0.471,1.052-1.052,1.052
				c-0.581,0-1.052-0.471-1.052-1.052s0.471-1.053,1.052-1.053C324.336,374.34,324.808,374.811,324.808,375.392z"/>
			<path id="XMLID_15323_" style="fill:#FAFAFA;" d="M321.823,368.811c0,0.469-0.38,0.849-0.849,0.849
				c-0.469,0-0.849-0.38-0.849-0.849c0-0.469,0.38-0.849,0.849-0.849C321.443,367.962,321.823,368.342,321.823,368.811z"/>
		</g>
		<g id="XMLID_15318_" style="opacity:0.5;">
			<path id="XMLID_15321_" style="fill:#FAFAFA;" d="M63.684,365.04c0,0.974-0.789,1.763-1.763,1.763
				c-0.974,0-1.763-0.789-1.763-1.763c0-0.974,0.79-1.763,1.763-1.763C62.895,363.277,63.684,364.066,63.684,365.04z"/>
			<path id="XMLID_15320_" style="fill:#FAFAFA;" d="M58.415,369.858c0,0.581-0.471,1.053-1.052,1.053
				c-0.581,0-1.052-0.471-1.052-1.053c0-0.581,0.471-1.052,1.052-1.052C57.943,368.806,58.415,369.277,58.415,369.858z"/>
			<path id="XMLID_15319_" style="fill:#FAFAFA;" d="M55.43,363.277c0,0.469-0.38,0.849-0.849,0.849
				c-0.469,0-0.849-0.38-0.849-0.849c0-0.469,0.38-0.849,0.849-0.849C55.05,362.428,55.43,362.808,55.43,363.277z"/>
		</g>
		<g id="XMLID_15314_">
			<path id="XMLID_15317_" style="fill:#FAFAFA;" d="M192.781,121.77c0,0.597-0.484,1.082-1.082,1.082
				c-0.598,0-1.082-0.484-1.082-1.082c0-0.597,0.484-1.082,1.082-1.082C192.296,120.688,192.781,121.172,192.781,121.77z"/>
			<g id="XMLID_15315_">
				<path id="XMLID_15316_" style="fill:#FAFAFA;" d="M197.869,107.604l2.438,2.405l3.364-0.645
					c0.318-0.061,0.567,0.269,0.423,0.558l-1.534,3.062l1.653,3c0.156,0.283-0.081,0.623-0.4,0.574l-3.387-0.513l-2.342,2.499
					c-0.221,0.236-0.617,0.116-0.67-0.203l-0.559-3.379l-3.101-1.455c-0.293-0.137-0.301-0.551-0.014-0.7l3.041-1.576l0.426-3.399
					C197.247,107.512,197.638,107.377,197.869,107.604z"/>
			</g>
		</g>
		<g id="XMLID_15295_">
			<path id="XMLID_15313_" style="fill:#FAFAFA;" d="M112.998,263.713l0.38,2.623l2.376,1.174c0.224,0.111,0.224,0.431,0,0.542
				l-2.377,1.171l-0.383,2.623c-0.036,0.248-0.341,0.346-0.515,0.167l-1.849-1.899l-2.612,0.447
				c-0.247,0.042-0.435-0.217-0.318-0.438l1.235-2.345l-1.232-2.346c-0.116-0.222,0.072-0.481,0.319-0.438l2.612,0.449l1.851-1.897
				C112.658,263.366,112.963,263.466,112.998,263.713z"/>
		</g>
		<g id="XMLID_15292_">
			<path id="XMLID_15293_" style="fill:#FAFAFA;" d="M348.046,94.43l2.608-0.473l1.089-2.416c0.103-0.228,0.423-0.239,0.541-0.019
				l1.255,2.334l2.634,0.289c0.249,0.027,0.358,0.328,0.185,0.509l-1.832,1.915l0.539,2.595c0.051,0.245-0.201,0.442-0.427,0.334
				l-2.387-1.15l-2.301,1.315c-0.217,0.124-0.483-0.055-0.449-0.303l0.356-2.626l-1.962-1.782
				C347.712,94.782,347.8,94.475,348.046,94.43z"/>
		</g>
		<g id="XMLID_15396_">
			<path id="XMLID_15402_" style="fill:#F0F0F0;" d="M189.865,373.3c0.635,0.367,0.852,1.18,0.484,1.815
				c-0.367,0.635-1.18,0.852-1.815,0.484c-0.635-0.368-0.852-1.18-0.484-1.815S189.23,372.933,189.865,373.3z"/>
			<path id="XMLID_15401_" style="fill:#FAFAFA;" d="M193.173,368.91c0.371,0.214,0.497,0.689,0.283,1.059
				c-0.215,0.371-0.689,0.497-1.059,0.283c-0.37-0.214-0.497-0.689-0.282-1.059C192.328,368.822,192.802,368.696,193.173,368.91z"/>
		</g>
		<g id="XMLID_15393_">
			<path id="XMLID_15395_" style="fill:#FAFAFA;" d="M231.846,393.169l-2.504,0.868l-0.705,2.555
				c-0.067,0.241-0.381,0.301-0.532,0.102l-1.599-2.114l-2.648,0.119c-0.25,0.011-0.404-0.269-0.261-0.475l1.516-2.174l-0.931-2.481
				c-0.088-0.234,0.131-0.468,0.371-0.395l2.536,0.77l2.072-1.652c0.196-0.156,0.485-0.02,0.49,0.23l0.051,2.65l2.212,1.46
				C232.123,392.769,232.083,393.087,231.846,393.169z"/>
		</g>
		<path id="XMLID_15451_" style="fill:#FAFAFA;" d="M403.86,205.874c0.903-0.364,1.931,0.074,2.294,0.977s-0.074,1.931-0.977,2.294
			c-0.903,0.364-1.931-0.074-2.294-0.977C402.519,207.265,402.956,206.238,403.86,205.874z"/>
	</g>
</g>
<g id="Meteorites">
	<g id="XMLID_15450_">
		<g id="XMLID_15360_">
			
				<linearGradient id="XMLID_00000173851433818012879700000006897174193825378978_" gradientUnits="userSpaceOnUse" x1="116.0521" y1="387.5155" x2="163.0229" y2="434.4864">
				<stop  offset="0" style="stop-color:#27DEBF"/>
				<stop  offset="0.8011" style="stop-color:#455A64"/>
				<stop  offset="1" style="stop-color:#455A64;stop-opacity:0"/>
			</linearGradient>
			<path id="XMLID_15449_" style="fill:url(#XMLID_00000173851433818012879700000006897174193825378978_);" d="M114.385,389.116
				c-0.903-0.902-0.903-2.366,0-3.268l0,0c0.902-0.902,2.366-0.902,3.268,0c0,0,46.139,47.581,45.226,48.494
				C161.966,435.255,114.385,389.116,114.385,389.116z"/>
		</g>
		<path id="XMLID_15361_" style="fill:#FAFAFA;" d="M115.246,386.709c0.485-0.485,1.272-0.485,1.757,0
			c0.485,0.485,0.485,1.272,0,1.757c-0.485,0.485-1.272,0.485-1.757,0C114.76,387.981,114.76,387.194,115.246,386.709z"/>
		
			<linearGradient id="XMLID_00000019655177599280618970000017470642873114245761_" gradientUnits="userSpaceOnUse" x1="114.789" y1="396.9937" x2="134.4234" y2="416.628">
			<stop  offset="0" style="stop-color:#27DEBF"/>
			<stop  offset="0.8011" style="stop-color:#455A64"/>
			<stop  offset="1" style="stop-color:#455A64;stop-opacity:0"/>
		</linearGradient>
		<path id="XMLID_15356_" style="fill:url(#XMLID_00000019655177599280618970000017470642873114245761_);" d="M114.092,398.151
			c-0.512-0.512-0.512-1.342,0-1.854l0,0c0.512-0.512,1.342-0.512,1.854,0c0,0,18.883,19.805,18.365,20.323
			C133.793,417.138,114.092,398.151,114.092,398.151z"/>
	</g>
	<g id="XMLID_7074_">
		<g id="XMLID_7025_">
			
				<linearGradient id="XMLID_00000005958735706234020270000009242462656840958105_" gradientUnits="userSpaceOnUse" x1="273.4988" y1="81.8341" x2="320.4696" y2="128.805">
				<stop  offset="0" style="stop-color:#27DEBF"/>
				<stop  offset="0.8011" style="stop-color:#455A64"/>
				<stop  offset="1" style="stop-color:#455A64;stop-opacity:0"/>
			</linearGradient>
			<path id="XMLID_7028_" style="fill:url(#XMLID_00000005958735706234020270000009242462656840958105_);" d="M271.832,83.435
				c-0.902-0.902-0.902-2.366,0-3.268l0,0c0.902-0.902,2.366-0.902,3.268,0c0,0,46.139,47.581,45.226,48.494
				C319.412,129.574,271.832,83.435,271.832,83.435z"/>
			<path id="XMLID_7026_" style="fill:#FAFAFA;" d="M272.692,81.028c0.485-0.485,1.272-0.485,1.757,0
				c0.485,0.485,0.485,1.272,0,1.757c-0.485,0.485-1.272,0.485-1.757,0C272.207,82.299,272.207,81.513,272.692,81.028z"/>
		</g>
		
			<linearGradient id="XMLID_00000166654404367575285760000002446359761456084140_" gradientUnits="userSpaceOnUse" x1="301.7021" y1="97.6696" x2="321.3365" y2="117.304">
			<stop  offset="0" style="stop-color:#27DEBF"/>
			<stop  offset="0.8011" style="stop-color:#455A64"/>
			<stop  offset="1" style="stop-color:#455A64;stop-opacity:0"/>
		</linearGradient>
		<path id="XMLID_7024_" style="fill:url(#XMLID_00000166654404367575285760000002446359761456084140_);" d="M301.005,98.827
			c-0.512-0.512-0.512-1.342,0-1.854l0,0c0.512-0.512,1.342-0.512,1.854,0c0,0,18.883,19.805,18.365,20.323
			C320.706,117.814,301.005,98.827,301.005,98.827z"/>
		
			<linearGradient id="XMLID_00000155138427949542843230000001595859167611127443_" gradientUnits="userSpaceOnUse" x1="272.2357" y1="91.3122" x2="291.8701" y2="110.9466">
			<stop  offset="0" style="stop-color:#27DEBF"/>
			<stop  offset="0.8011" style="stop-color:#455A64"/>
			<stop  offset="1" style="stop-color:#455A64;stop-opacity:0"/>
		</linearGradient>
		<path id="XMLID_4188_" style="fill:url(#XMLID_00000155138427949542843230000001595859167611127443_);" d="M271.539,92.47
			c-0.512-0.512-0.512-1.342,0-1.854l0,0c0.512-0.512,1.342-0.512,1.854,0c0,0,18.883,19.805,18.365,20.323
			S271.539,92.47,271.539,92.47z"/>
	</g>
</g>
</svg>
