<svg viewBox="0 0 48 48" xmlns="http://www.w3.org/2000/svg">
	<path
		d="M42.2501 1H5.8762C3.10862 1 1 3.25765 1 5.9137V31.1462C1 33.9351 3.24041 36.0599 5.8762 36.0599H17.3419L22.6134 45.6217C23.6678 47.481 24.0631 47.481 25.2492 45.4889L30.389 36.1927L42.1183 36.0599C44.8858 36.0599 46.9945 33.8023 46.9945 31.1462V5.9137C47.1263 3.25765 44.8858 1 42.2501 1ZM28.1486 25.3029C28.1486 25.9669 27.7532 26.3653 27.2261 26.3653H7.19409C6.66694 26.3653 6.27157 25.8341 6.27157 25.3029V24.7717C6.27157 24.1077 6.66694 23.7093 7.19409 23.7093H27.0943C27.6214 23.7093 28.0168 24.2405 28.0168 24.7717L28.1486 25.3029ZM28.1486 17.866C28.1486 18.53 27.7532 18.9284 27.2261 18.9284H7.19409C6.66694 18.9284 6.27157 18.3972 6.27157 17.866V17.3347C6.27157 16.6707 6.66694 16.2723 7.19409 16.2723H27.0943C27.6214 16.2723 28.0168 16.8035 28.0168 17.3347L28.1486 17.866ZM28.1486 10.2962C28.1486 10.9602 27.7532 11.3586 27.2261 11.3586H7.19409C6.66694 11.3586 6.27157 10.8274 6.27157 10.2962V9.76499C6.27157 9.10097 6.66694 8.70256 7.19409 8.70256H27.0943C27.6214 8.70256 28.0168 9.23377 28.0168 9.76499L28.1486 10.2962ZM41.3275 17.7332C41.3275 18.2644 40.8004 18.7956 40.2732 18.7956H34.8698C34.3427 18.7956 33.8155 18.3972 33.8155 17.7332V9.63218C33.8155 9.10097 34.3427 8.56976 34.8698 8.56976H40.2732C40.8004 8.56976 41.3275 8.96817 41.3275 9.63218V17.7332Z"
		fill="currentColor"
	/>
</svg>
