<svg xmlns="http://www.w3.org/2000/svg" viewBox="0 0 48 48">
	<path
		d="M43.0435 0H5.08821C2.2003 0 0 2.35581 0 5.12734V31.4569C0 34.3671 2.33782 36.5843 5.08821 36.5843H17.0524L22.5532 46.5618C23.6533 48.5019 24.0659 48.5019 25.3035 46.4232L30.6668 36.7229L42.906 36.5843C45.7939 36.5843 47.9942 34.2285 47.9942 31.4569V5.12734C48.1317 2.35581 45.7939 0 43.0435 0ZM28.329 25.3596C28.329 26.0524 27.9164 26.4682 27.3663 26.4682H6.4634C5.91332 26.4682 5.50077 25.9139 5.50077 25.3596V24.8053C5.50077 24.1124 5.91332 23.6966 6.4634 23.6966H27.2288C27.7789 23.6966 28.1914 24.2509 28.1914 24.8053L28.329 25.3596ZM28.329 17.5993C28.329 18.2921 27.9164 18.7079 27.3663 18.7079H6.4634C5.91332 18.7079 5.50077 18.1536 5.50077 17.5993V17.045C5.50077 16.3521 5.91332 15.9363 6.4634 15.9363H27.2288C27.7789 15.9363 28.1914 16.4906 28.1914 17.045L28.329 17.5993ZM28.329 9.70038C28.329 10.3933 27.9164 10.809 27.3663 10.809H6.4634C5.91332 10.809 5.50077 10.2547 5.50077 9.70038V9.14607C5.50077 8.45319 5.91332 8.03746 6.4634 8.03746H27.2288C27.7789 8.03746 28.1914 8.59176 28.1914 9.14607L28.329 9.70038ZM42.0809 17.4607C42.0809 18.015 41.5308 18.5693 40.9807 18.5693H35.3424C34.7924 18.5693 34.2423 18.1536 34.2423 17.4607V9.00749C34.2423 8.45319 34.7924 7.89888 35.3424 7.89888H40.9807C41.5308 7.89888 42.0809 8.31461 42.0809 9.00749V17.4607Z"
		fill="var(--white)"
	/>
</svg>
