<svg viewBox="0 0 48 48" xmlns="http://www.w3.org/2000/svg">
	<path
		d="M29.8253 45.9384C29.6539 46.4923 30.7888 43.1895 31.0885 40.8883C32.5658 29.7011 30.8101 18.8763 19.7193 10.012C14.2167 5.60111 7.06556 3.27846 0 3.59809C2.54788 4.13081 4.08946 6.79439 4.49626 9.37273C4.90308 11.9298 4.47486 14.5507 4.77461 17.1291C5.37411 22.3071 8.97111 26.931 13.6387 29.3177C17.8566 31.4698 22.8238 31.8959 27.4914 30.937C27.4914 30.937 22.931 19.473 14.4951 15.9785C14.4951 15.9785 25.8856 19.4091 29.1829 30.4469C31.3669 37.8411 29.8253 45.9384 29.8253 45.9384Z"
		fill="currentColor"
	/>
	<path
		d="M31.6232 24.1183C31.6017 24.0544 31.5804 23.9906 31.5589 23.9478C32.6724 19.4304 36.6761 15.0836 39.4595 13.7624C36.6334 13.8689 31.8801 18.2373 30.4027 20.922C29.5035 18.8977 28.3687 16.98 26.9985 15.1687C32.0513 9.79895 43.6774 9.79895 45.8399 2C46.6536 7.02884 46.6536 14.4655 44.5554 19.1108C42.5641 23.5004 38.389 29.7651 32.7151 29.0193C32.4797 27.3146 32.1156 25.6739 31.6232 24.1183Z"
		fill="currentColor"
	/>
</svg>
