<svg viewBox="0 0 48 48" xmlns="http://www.w3.org/2000/svg">
	<path
		fill-rule="evenodd"
		clip-rule="evenodd"
		d="M19.9383 35H1V13H21.7407C21.055 13.1062 20.4315 13.3124 19.87 13.6186C19.0178 14.0874 18.3537 14.7301 17.8778 15.5469C17.6132 15.9972 17.4221 16.4816 17.3047 17H5V22H14V26H5V31H15.5688C15.7114 31.466 15.9129 31.908 16.1733 32.326C16.7557 33.2422 17.5831 33.9702 18.6555 34.5099C19.0542 34.7106 19.4818 34.8739 19.9383 35ZM24.0395 13C24.7104 13.1037 25.3128 13.3028 25.8466 13.5973C26.6705 14.0518 27.3061 14.6555 27.7536 15.4084C28.201 16.1612 28.4247 16.9815 28.4247 17.8693C28.4247 18.8991 28.169 19.8224 27.6577 20.6392C27.1463 21.4489 26.4361 22.1839 25.527 22.8445L24.1512 23.8514L28.1435 28.5291C28.273 28.2857 28.3916 28.0315 28.4993 27.7663C28.8686 26.8501 29.0533 25.8345 29.0533 24.7195H32.3665C32.3665 26.0973 32.2138 27.2976 31.9084 28.3203C31.603 29.3359 31.2088 30.1953 30.7259 30.8984C30.6409 31.0209 30.555 31.1391 30.4683 31.253L33.6662 35H36V26H45V22H36V17H47V13H24.0395ZM29.4901 35L28.0934 33.4004C27.3528 34.0431 26.4937 34.5195 25.5163 34.8295C25.3195 34.8924 25.1234 34.9492 24.9279 35H29.4901ZM25.9947 30.9965C25.656 31.2408 25.3012 31.4496 24.9304 31.6229C24.1705 31.9709 23.3999 32.1449 22.6186 32.1449C21.9084 32.1449 21.2869 32.0064 20.7543 31.7294C20.2287 31.4453 19.8203 31.0689 19.5291 30.6001C19.2379 30.1314 19.0923 29.6094 19.0923 29.0341C19.0923 28.6577 19.2486 28.2031 19.5611 27.6705C19.8736 27.1307 20.392 26.598 21.1165 26.0724L21.4698 25.8139L25.9947 30.9965ZM22.1828 21.5008L23.4176 20.6605C23.9858 20.2912 24.4155 19.9006 24.7067 19.4886C25.005 19.0767 25.1541 18.5937 25.1541 18.0398C25.1541 17.571 24.9553 17.1271 24.5575 16.7081C24.1669 16.2891 23.6271 16.0795 22.9382 16.0795C22.4766 16.0795 22.0682 16.1896 21.7131 16.4098C21.3651 16.6229 21.0916 16.9034 20.8928 17.2514C20.701 17.5994 20.6051 17.9688 20.6051 18.3594C20.6051 18.8352 20.7365 19.3182 20.9993 19.8082C21.2692 20.2983 21.6172 20.8061 22.0433 21.3317L22.1828 21.5008Z"
		fill="currentColor"
	/>
</svg>
